<?xml version="1.0" encoding="UTF-8"?>
<svg width="328px" height="266px" viewBox="0 0 328 266" version="1.1" xmlns="http://www.w3.org/2000/svg" xmlns:xlink="http://www.w3.org/1999/xlink">
    <!-- Generator: Sketch 52.6 (67491) - http://www.bohemiancoding.com/sketch -->
    <title>Group 4 Copy 2</title>
    <desc>Created with Sketch.</desc>
    <defs>
        <polygon id="path-1" points="0.326579809 0.244714937 248.92439 0.244714937 248.92439 203.892957 0.326579809 203.892957"></polygon>
        <path d="M0.0255172414,70.4289589 L33.6106897,103.990751 L50.0362069,120.38803 C100.186207,124.050138 144.424483,121.707768 128.315172,67.9680228 C127.553448,65.4267788 126.931724,62.8924282 126.427931,60.3684176 L64.3172414,0.0372242439 L0.0255172414,70.4289589 Z" id="path-3"></path>
        <linearGradient x1="83.3641426%" y1="28.5829096%" x2="20.0869066%" y2="89.4145053%" id="linearGradient-5">
            <stop stop-color="#98EDE7" offset="0%"></stop>
            <stop stop-color="#5FD6CA" offset="100%"></stop>
        </linearGradient>
        <path d="M77.1303448,200.437044 C95.1565517,196.502303 121.002069,198.801245 147.191379,201.100531 C204.666897,206.146484 263.796552,211.192093 245.556552,150.343896 C230.465172,99.9987953 270.426552,53.0124934 190.426552,10.319043 C176.987241,3.14717196 164.89931,0.242991592 153.820345,0.244370268 C111.979655,0.250574309 84.6596552,41.7066633 54.4927586,51.2767407 C-22.7855172,75.7909734 -19.2286207,221.470465 77.1303448,200.437044 Z" id="path-6"></path>
        <linearGradient x1="67.6174373%" y1="-9.58558055%" x2="25.5493857%" y2="100%" id="linearGradient-8">
            <stop stop-color="#98EDE7" offset="0%"></stop>
            <stop stop-color="#5FD6CA" offset="100%"></stop>
        </linearGradient>
        <path d="M23.4731034,6.02308947 C22.2006897,5.55330573 20.8303448,5.29894006 19.3817241,5.29894006 C15.8582759,5.29894006 12.6865517,6.84443552 10.5137931,9.29089555 C9.5937931,8.93864391 8.59551724,8.74252729 7.55793103,8.74252729 C4.26931034,8.74252729 1.41103448,10.6602652 0.0606896552,13.4193399 L72.157931,13.4193399 L72.157931,13.3996938 C70.8072414,10.6213176 67.9493103,8.72322583 64.6606897,8.72322583 C63.6231034,8.72322583 62.6248276,8.91865311 61.7048276,9.27124942 C59.5317241,6.82478939 56.38,5.2796386 52.8368966,5.2796386 C51.3686207,5.2796386 49.9786207,5.55330573 48.6672414,6.0427356 C45.5937931,2.53986531 41.0717241,0.328814155 36.0603448,0.328814155 C31.0489655,0.328814155 26.5465517,2.52021918 23.4731034,6.02308947" id="path-9"></path>
        <linearGradient x1="50%" y1="0%" x2="50%" y2="100%" id="linearGradient-11">
            <stop stop-color="#FFFFFF" offset="0%"></stop>
            <stop stop-color="#FFFFFF" stop-opacity="0" offset="100%"></stop>
        </linearGradient>
        <path d="M23.4568966,5.97207847 C22.1844828,5.50263939 20.8141379,5.24827373 19.3655172,5.24827373 C15.8417241,5.24827373 12.6706897,6.79411386 10.4975862,9.23988455 C9.57758621,8.88763291 8.57931034,8.69220563 7.54172414,8.69220563 C4.25310345,8.69220563 1.39482759,10.6095989 0.044137931,13.3686736 L72.1417241,13.3686736 L72.1417241,13.3490275 C70.7913793,10.5706513 67.9331034,8.6725595 64.6441379,8.6725595 C63.6068966,8.6725595 62.6082759,8.86798678 61.6882759,9.22023842 C59.5151724,6.77446773 56.3637931,5.22828293 52.8203448,5.22828293 C51.352069,5.22828293 49.9624138,5.50263939 48.6510345,5.9917246 C45.5772414,2.48954365 41.0551724,0.278147823 36.0441379,0.278147823 C31.0327586,0.278147823 26.53,2.46989752 23.4568966,5.97207847" id="path-12"></path>
        <path d="M23.5703448,5.80491404 C22.297931,5.33581963 20.9275862,5.0811093 19.4793103,5.0811093 C15.9555172,5.0811093 12.7841379,6.62694943 10.6113793,9.07272012 C9.69137931,8.72046848 8.69275862,8.5250412 7.65551724,8.5250412 C4.3662069,8.5250412 1.50827586,10.4424344 0.157931034,13.2015092 L72.2555172,13.2015092 L72.2555172,13.1818631 C70.9044828,10.4034868 68.0465517,8.50573974 64.7582759,8.50573974 C63.7206897,8.50573974 62.722069,8.70116702 61.802069,9.053074 C59.6289655,6.60764797 56.4775862,5.06146317 52.9344828,5.06146317 C51.4662069,5.06146317 50.0762069,5.33581963 48.7644828,5.82456017 C45.6913793,2.32237922 41.1693103,0.111328063 36.1575862,0.111328063 C31.1462069,0.111328063 26.6437931,2.30273309 23.5703448,5.80491404" id="path-14"></path>
        <polygon id="path-16" points="0 210.937382 279.745172 210.937382 279.745172 0.244714937 0 0.244714937"></polygon>
    </defs>
    <g id="Page-1" stroke="none" stroke-width="1" fill="none" fill-rule="evenodd">
        <g id="Group-4-Copy-2">
            <g id="Group-4-Copy">
                <rect id="Rectangle-3-Copy" fill="#FFFFFF" fill-rule="nonzero" opacity="0.0191359747" x="0" y="0" width="328" height="266"></rect>
                <g id="Add-Img" transform="translate(18.000000, 30.000000)">
                    <g id="Group-3" transform="translate(21.379310, 0.099954)">
                        <mask id="mask-2" fill="white">
                            <use xlink:href="#path-1"></use>
                        </mask>
                        <g id="Clip-2"></g>
                        <path d="M54.4927241,51.2765684 C92.6472069,39.1728297 126.232724,-23.9388079 190.426517,10.3192153 C270.426517,53.0126657 230.465138,99.998623 245.556517,150.343724 C272.107897,238.917778 134.717207,187.866795 77.1303103,200.437216 C-19.2286552,221.470637 -22.7852069,75.7911457 54.4927241,51.2765684" id="Fill-1" fill="#ECF4FA" mask="url(#mask-2)"></path>
                    </g>
                    <g id="Group-6" transform="translate(138.620690, 82.475827)">
                        <mask id="mask-4" fill="white">
                            <use xlink:href="#path-3"></use>
                        </mask>
                        <g id="Clip-5"></g>
                        <path d="M0.0255172414,70.4289589 L33.6106897,103.990751 L50.0362069,120.38803 C100.186207,124.050138 144.424483,121.707768 128.315172,67.9680228 C127.553448,65.4267788 126.931724,62.8924282 126.427931,60.3684176 L64.3172414,0.0372242439 L0.0255172414,70.4289589 Z" id="Fill-4" fill="url(#linearGradient-5)" mask="url(#mask-4)"></path>
                    </g>
                    <g id="Group-9" transform="translate(21.379310, 0.099954)">
                        <mask id="mask-7" fill="white">
                            <use xlink:href="#path-6"></use>
                        </mask>
                        <g id="Clip-8"></g>
                        <polygon id="Fill-7" fill="url(#linearGradient-8)" mask="url(#mask-7)" points="-14.4010345 210.937382 175.464828 210.937382 150.852069 186.366624 83.682069 119.235113 -21.3793103 210.937382"></polygon>
                    </g>
                    <g id="Group-12" transform="translate(188.620690, 100.743280)">
                        <mask id="mask-10" fill="white">
                            <use xlink:href="#path-9"></use>
                        </mask>
                        <g id="Clip-11"></g>
                        <path d="M23.4731034,6.02308947 C22.2006897,5.55330573 20.8303448,5.29894006 19.3817241,5.29894006 C15.8582759,5.29894006 12.6865517,6.84443552 10.5137931,9.29089555 C9.5937931,8.93864391 8.59551724,8.74252729 7.55793103,8.74252729 C4.26931034,8.74252729 1.41103448,10.6602652 0.0606896552,13.4193399 L72.157931,13.4193399 L72.157931,13.3996938 C70.8072414,10.6213176 67.9493103,8.72322583 64.6606897,8.72322583 C63.6231034,8.72322583 62.6248276,8.91865311 61.7048276,9.27124942 C59.5317241,6.82478939 56.38,5.2796386 52.8368966,5.2796386 C51.3686207,5.2796386 49.9786207,5.55330573 48.6672414,6.0427356 C45.5937931,2.53986531 41.0717241,0.328814155 36.0603448,0.328814155 C31.0489655,0.328814155 26.5465517,2.52021918 23.4731034,6.02308947" id="Fill-10" fill="url(#linearGradient-11)" mask="url(#mask-10)"></path>
                    </g>
                    <g id="Group-15" transform="translate(104.827586, 52.834300)">
                        <mask id="mask-13" fill="white">
                            <use xlink:href="#path-12"></use>
                        </mask>
                        <g id="Clip-14"></g>
                        <path d="M23.4568966,5.97207847 C22.1844828,5.50263939 20.8141379,5.24827373 19.3655172,5.24827373 C15.8417241,5.24827373 12.6706897,6.79411386 10.4975862,9.23988455 C9.57758621,8.88763291 8.57931034,8.69220563 7.54172414,8.69220563 C4.25310345,8.69220563 1.39482759,10.6095989 0.044137931,13.3686736 L72.1417241,13.3686736 L72.1417241,13.3490275 C70.7913793,10.5706513 67.9331034,8.6725595 64.6441379,8.6725595 C63.6068966,8.6725595 62.6082759,8.86798678 61.6882759,9.22023842 C59.5151724,6.77446773 56.3637931,5.22828293 52.8203448,5.22828293 C51.352069,5.22828293 49.9624138,5.50263939 48.6510345,5.9917246 C45.5772414,2.48954365 41.0551724,0.278147823 36.0441379,0.278147823 C31.0327586,0.278147823 26.53,2.46989752 23.4568966,5.97207847" id="Fill-13" fill="url(#linearGradient-11)" mask="url(#mask-13)"></path>
                    </g>
                    <g id="Group-18" transform="translate(39.310345, 134.176166)">
                        <mask id="mask-15" fill="white">
                            <use xlink:href="#path-14"></use>
                        </mask>
                        <g id="Clip-17"></g>
                        <path d="M23.5703448,5.80491404 C22.297931,5.33581963 20.9275862,5.0811093 19.4793103,5.0811093 C15.9555172,5.0811093 12.7841379,6.62694943 10.6113793,9.07272012 C9.69137931,8.72046848 8.69275862,8.5250412 7.65551724,8.5250412 C4.3662069,8.5250412 1.50827586,10.4424344 0.157931034,13.2015092 L72.2555172,13.2015092 L72.2555172,13.1818631 C70.9044828,10.4034868 68.0465517,8.50573974 64.7582759,8.50573974 C63.7206897,8.50573974 62.722069,8.70116702 61.802069,9.053074 C59.6289655,6.60764797 56.4775862,5.06146317 52.9344828,5.06146317 C51.4662069,5.06146317 50.0762069,5.33581963 48.7644828,5.82456017 C45.6913793,2.32237922 41.1693103,0.111328063 36.1575862,0.111328063 C31.1462069,0.111328063 26.6437931,2.30273309 23.5703448,5.80491404" id="Fill-16" fill="url(#linearGradient-11)" mask="url(#mask-15)"></path>
                    </g>
                    <g id="Group-32" transform="translate(0.000000, 0.099954)">
                        <path d="M56.7054828,79.6136619 C41.2413448,79.6136619 28.7165172,67.0873592 28.7165172,51.6299919 C28.7165172,36.1808966 41.2413448,23.6542492 56.7054828,23.6542492 C72.1696207,23.6542492 84.6941034,36.1808966 84.6941034,51.6299919 C84.6941034,67.0873592 72.1696207,79.6136619 56.7054828,79.6136619 Z" id="Fill-19" fill="#5FD6CA"></path>
                        <mask id="mask-17" fill="white">
                            <use xlink:href="#path-16"></use>
                        </mask>
                        <g id="Clip-22"></g>
                        <polygon id="Fill-21" fill="#FFFFFF" mask="url(#mask-17)" points="54.5427586 63.5638432 57.3013793 63.5638432 57.3013793 39.7041369 54.5427586 39.7041369"></polygon>
                        <polygon id="Fill-23" fill="#FFFFFF" mask="url(#mask-17)" points="43.9868966 53.0128381 67.8575862 53.0128381 67.8575862 50.2554867 43.9868966 50.2554867"></polygon>
                        <path d="M28.7064483,10.9240403 L27.7195517,8.51652788 L26.7326552,10.9240403 L28.7064483,10.9240403 Z M26.9874828,6.55432769 L28.4940345,6.55432769 L31.6771379,14.0315754 L29.9688621,14.0315754 L29.2898966,12.3664798 L26.1492069,12.3664798 L25.4698966,14.0315754 L23.8040345,14.0315754 L26.9874828,6.55432769 Z" id="Fill-24" fill="#494B56" mask="url(#mask-17)"></path>
                        <path d="M35.7198276,12.5571851 C36.0522414,12.5571851 36.3563793,12.5044507 36.6322414,12.3982927 C36.9081034,12.29179 37.1432759,12.1401357 37.3377586,11.9422957 C37.5322414,11.7444558 37.6843103,11.5111149 37.7943103,11.2422731 C37.9036207,10.9734314 37.9584483,10.6728801 37.9584483,10.3406192 L37.9584483,10.3195944 C37.9584483,9.99422696 37.9036207,9.69367566 37.7943103,9.41794052 C37.6843103,9.14220538 37.5322414,8.90541783 37.3377586,8.7072332 C37.1432759,8.50939323 36.9081034,8.35601556 36.6322414,8.24606617 C36.3563793,8.13646145 36.0522414,8.0816591 35.7198276,8.0816591 L34.457069,8.0816591 L34.457069,12.5571851 L35.7198276,12.5571851 Z M32.8232759,6.60716543 L35.7198276,6.60716543 C36.2998276,6.60716543 36.8322414,6.70126005 37.3167241,6.88841528 C37.8012069,7.07591517 38.2184483,7.33579554 38.5687931,7.66771172 C38.9187931,8.00031723 39.1894828,8.39082712 39.3805172,8.83993073 C39.5715517,9.28903434 39.6667241,9.77501753 39.6667241,10.298225 L39.6667241,10.3195944 C39.6667241,10.8428019 39.5715517,11.3305084 39.3805172,11.7830587 C39.1894828,12.235609 38.9187931,12.6278422 38.5687931,12.9604477 C38.2184483,13.2927086 37.8012069,13.5543123 37.3167241,13.7449142 C36.8322414,13.9358608 36.2998276,14.0313341 35.7198276,14.0313341 L32.8232759,14.0313341 L32.8232759,6.60716543 Z" id="Fill-25" fill="#494B56" mask="url(#mask-17)"></path>
                        <path d="M44.0172414,12.5571851 C44.3496552,12.5571851 44.6537931,12.5044507 44.9296552,12.3982927 C45.2055172,12.29179 45.4406897,12.1401357 45.6351724,11.9422957 C45.8296552,11.7444558 45.9817241,11.5111149 46.0917241,11.2422731 C46.2010345,10.9734314 46.2558621,10.6728801 46.2558621,10.3406192 L46.2558621,10.3195944 C46.2558621,9.99422696 46.2010345,9.69367566 46.0917241,9.41794052 C45.9817241,9.14220538 45.8296552,8.90541783 45.6351724,8.7072332 C45.4406897,8.50939323 45.2055172,8.35601556 44.9296552,8.24606617 C44.6537931,8.13646145 44.3496552,8.0816591 44.0172414,8.0816591 L42.7544828,8.0816591 L42.7544828,12.5571851 L44.0172414,12.5571851 Z M41.1206897,6.60716543 L44.0172414,6.60716543 C44.5972414,6.60716543 45.1296552,6.70126005 45.6141379,6.88841528 C46.0986207,7.07591517 46.5158621,7.33579554 46.8662069,7.66771172 C47.2162069,8.00031723 47.4868966,8.39082712 47.677931,8.83993073 C47.8689655,9.28903434 47.9641379,9.77501753 47.9641379,10.298225 L47.9641379,10.3195944 C47.9641379,10.8428019 47.8689655,11.3305084 47.677931,11.7830587 C47.4868966,12.235609 47.2162069,12.6278422 46.8662069,12.9604477 C46.5158621,13.2927086 46.0986207,13.5543123 45.6141379,13.7449142 C45.1296552,13.9358608 44.5972414,14.0313341 44.0172414,14.0313341 L41.1206897,14.0313341 L41.1206897,6.60716543 Z" id="Fill-26" fill="#494B56" mask="url(#mask-17)"></path>
                        <polygon id="Fill-27" fill="#494B56" mask="url(#mask-17)" points="52.6751724 14.031472 54.3093103 14.031472 54.3093103 6.6073033 52.6751724 6.6073033"></polygon>
                        <polygon id="Fill-28" fill="#494B56" mask="url(#mask-17)" points="56.1663793 6.60726883 57.9274138 6.60726883 59.8801724 9.74651341 61.8325862 6.60726883 63.5936207 6.60726883 63.5936207 14.0314375 61.9808621 14.0314375 61.9808621 9.18470306 59.8908621 12.3560018 59.8484483 12.3560018 57.7791379 9.2164126 57.7791379 14.0314375 56.1663793 14.0314375"></polygon>
                        <path d="M69.641931,10.9240403 L68.6550345,8.51652788 L67.6681379,10.9240403 L69.641931,10.9240403 Z M67.9229655,6.55432769 L69.4295172,6.55432769 L72.6126207,14.0315754 L70.9043448,14.0315754 L70.2253793,12.3664798 L67.0846897,12.3664798 L66.4053793,14.0315754 L64.7395172,14.0315754 L67.9229655,6.55432769 Z" id="Fill-29" fill="#494B56" mask="url(#mask-17)"></path>
                        <path d="M77.3342069,14.1586893 C76.7542069,14.1586893 76.2255862,14.0635606 75.748,13.8722694 C75.2707586,13.6813228 74.860069,13.4162724 74.5173103,13.0767735 C74.1742069,12.7376193 73.9073103,12.3347013 73.7162759,11.8680196 C73.5252414,11.4013379 73.4297241,10.8919172 73.4297241,10.3407916 L73.4297241,10.3194221 C73.4297241,9.78897662 73.5269655,9.29265337 73.7211034,8.82941833 C73.915931,8.36618329 74.1862759,7.95981863 74.5331724,7.609635 C74.8797241,7.25945137 75.2897241,6.9840609 75.7638621,6.78242958 C76.2376552,6.58114293 76.7576552,6.48015493 77.3238621,6.48015493 C77.6562759,6.48015493 77.9586897,6.50324775 78.2311034,6.54908872 C78.5031724,6.59527435 78.7562759,6.66041678 78.9897241,6.74520534 C79.2231724,6.82999389 79.4421379,6.93615192 79.6473103,7.06333476 C79.8524828,7.19051759 80.0507586,7.33562321 80.2417931,7.49830694 L79.2124828,8.73911507 C79.0707586,8.61917028 78.9293793,8.51301226 78.788,8.42133032 C78.6466207,8.32930372 78.4997241,8.25106387 78.3476552,8.18764479 C78.1955862,8.12388104 78.0311034,8.07493805 77.8542069,8.03909248 C77.6773103,8.00393625 77.4831724,7.98635814 77.2704138,7.98635814 C76.9735172,7.98635814 76.6955862,8.04805388 76.4376552,8.17247936 C76.1793793,8.2962155 75.9531724,8.46303526 75.7586897,8.67190463 C75.5638621,8.880774 75.4121379,9.12514427 75.3021379,9.4053601 C75.1924828,9.68523127 75.138,9.98474857 75.138,10.3032227 L75.138,10.3245921 C75.138,10.6647804 75.1924828,10.9784291 75.3021379,11.2651936 C75.4121379,11.5523028 75.5676552,11.8025325 75.7693793,12.0148485 C75.9707586,12.2271646 76.2076552,12.392261 76.480069,12.5091038 C76.7524828,12.6262912 77.0545517,12.6845403 77.3873103,12.6845403 C77.9955862,12.6845403 78.5083448,12.5349539 78.925931,12.236126 L78.925931,11.1676523 L77.2814483,11.1676523 L77.2814483,9.75726708 L80.5069655,9.75726708 L80.5069655,12.9816449 C80.1248966,13.3066677 79.670069,13.5844708 79.1435172,13.8140203 C78.6166207,14.0435698 78.0135172,14.1586893 77.3342069,14.1586893" id="Fill-30" fill="#494B56" mask="url(#mask-17)"></path>
                        <polygon id="Fill-31" fill="#494B56" mask="url(#mask-17)" points="82.0772759 6.60726883 87.669 6.60726883 87.669 8.06039302 83.6900345 8.06039302 83.6900345 9.56659623 87.1914138 9.56659623 87.1914138 11.0193757 83.6900345 11.0193757 83.6900345 12.5783133 87.7221034 12.5783133 87.7221034 14.0314375 82.0772759 14.0314375"></polygon>
                    </g>
                </g>
            </g>
        </g>
    </g>
</svg>