<?xml version="1.0" encoding="utf-8"?>
<!-- Generator: Adobe Illustrator 25.2.1, SVG Export Plug-In . SVG Version: 6.00 Build 0)  -->
<svg version="1.1" id="Layer_1" xmlns="http://www.w3.org/2000/svg" xmlns:xlink="http://www.w3.org/1999/xlink" x="0px" y="0px"
	 viewBox="0 0 36.8 40" style="enable-background:new 0 0 36.8 40;" xml:space="preserve">
<style type="text/css">
	.st0{fill:#FFFFFF;}
</style>
<path class="st0" d="M25.7,21.6c0,4.1-3.3,7.3-7.3,7.3c-1.9,0-3.7-0.7-5-2c1.8,5.6,6.3,10,12,11.5c6.7-2.8,11.4-9.3,11.4-16.9
	L25.7,21.6L25.7,21.6z"/>
<path class="st0" d="M22.4,0v3.7c-1.4-0.3-2.7-0.5-4.1-0.5C8.2,3.2,0,11.4,0,21.6C0,31.7,8.2,40,18.4,40c1.6,0,3.2-0.2,4.8-0.6
	c-6.8-2.7-11.6-9.1-12-16.8c-0.1-0.4-0.1-0.6-0.1-1c0-4.1,3.3-7.3,7.3-7.3h4.1h12.2h0.6h1.5C36.7,6.4,30.3,0,22.4,0z M29.3,11.6
	c-1.6,0-2.9-1.4-2.9-2.9s1.4-2.9,2.9-2.9c1.6,0,2.9,1.4,2.9,2.9S30.9,11.6,29.3,11.6z"/>
<path class="st0" d="M29.5,8.6c0,0.6,0.5,1.2,1.2,1.2c0.6,0,1.2-0.5,1.2-1.2c0-0.6-0.5-1.2-1.2-1.2C30,7.6,29.5,8,29.5,8.6z"/>
</svg>
