<svg width="22" height="22" viewBox="0 0 22 22" fill="none" xmlns="http://www.w3.org/2000/svg">
<path d="M5.5 1.375V0H0.6875C0.309375 0 0 0.309375 0 0.6875V5.5H1.375V2.34609L7.76016 8.73125L8.73125 7.76016L2.34609 1.375H5.5Z" fill="white"/>
<path d="M21.3127 0H16.5002V1.375H19.6541L13.2689 7.76016L14.24 8.73125L20.6252 2.34609V5.5H22.0002V0.6875C22.0002 0.309375 21.6908 0 21.3127 0Z" fill="white"/>
<path d="M20.6252 19.6541L14.24 13.2689L13.2689 14.24L19.6541 20.6252H16.5002V22.0002H21.3127C21.6908 22.0002 22.0002 21.6908 22.0002 21.3127V16.5002H20.6252V19.6541Z" fill="white"/>
<path d="M7.76016 13.2605L1.375 19.6542V16.5003H0V21.3128C0 21.6909 0.309375 22.0003 0.6875 22.0003H5.5V20.6253H2.34609L8.73125 14.2402L7.76016 13.2605Z" fill="white"/>
</svg>
