<?xml version="1.0" encoding="utf-8"?>
<!-- Generator: Adobe Illustrator 25.2.1, SVG Export Plug-In . SVG Version: 6.00 Build 0)  -->
<svg version="1.1" xmlns="http://www.w3.org/2000/svg" xmlns:xlink="http://www.w3.org/1999/xlink" x="0px" y="0px"
	 viewBox="0 0 1920 930" style="enable-background:new 0 0 1920 930;" xml:space="preserve">
<style type="text/css">
	.st0{fill:#FFFFFF;stroke:#160C34;stroke-width:3;stroke-linecap:round;stroke-miterlimit:10;stroke-dasharray:6,10;}
	.st1{fill:#E5E6F9;}
	.st2{fill:#0D0E0F;}
	.st3{fill:#141719;}
	.st4{fill:#FFFFFF;stroke:#160C34;stroke-width:3.32;stroke-linecap:round;stroke-miterlimit:10;}
	.st5{fill:#FC0567;stroke:#160C34;stroke-width:3.32;stroke-linecap:round;stroke-miterlimit:10;}
	.st6{fill:#FFFFFF;}
	.st7{fill:#FC0567;}
	.st8{fill:#6FBBBC;}
	.st9{fill:none;stroke:#160C34;stroke-width:3.32;stroke-linecap:round;stroke-miterlimit:10;}
	.st10{fill:#7FCED3;}
	.st11{fill:#374047;}
</style>
<g id="Layer_2">
	<path class="st0" d="M79.9,32h1760.2c29.5,0,53.5,23.9,53.5,53.5v759.2c0,29.5-23.9,53.5-53.5,53.5H79.9
		c-29.5,0-53.5-23.9-53.5-53.5V85.4C26.4,55.9,50.4,32,79.9,32z"/>
</g>
<g id="Layer_1">
	<ellipse class="st1" cx="958.5" cy="767" rx="405.9" ry="25.2"/>
	<ellipse class="st1" cx="1664.4" cy="767" rx="91.6" ry="10.5"/>
	<ellipse class="st1" cx="274.1" cy="767" rx="130.3" ry="10.5"/>
	<rect x="892.8" y="685.5" class="st2" width="131.4" height="56.3"/>
	<polygon class="st3" points="813.8,747.6 892.8,724.5 1024.2,724.5 1103.2,747.6 1103.2,767 813.8,767 	"/>
	<path class="st4" d="M601.5,194.2h714c27,0,49,21.9,49,49v405.6c0,27-21.9,49-49,49h-714c-27,0-49-21.9-49-49V243.2
		C552.5,216.2,574.5,194.2,601.5,194.2z"/>
	<path class="st5" d="M1364.4,264.9v-21.7c0-27.1-21.9-49-49-49h-714c-27.1,0-49,21.9-49,49v21.7"/>
	<circle class="st6" cx="606.9" cy="229.6" r="9.8"/>
	<circle class="st6" cx="639.7" cy="229.6" r="9.8"/>
	<circle class="st6" cx="672.4" cy="229.6" r="9.8"/>
	<path class="st7" d="M878.7,601.1h159.5c9.3,0,16.9,7.6,16.9,16.9l0,0c0,9.3-7.6,16.9-16.9,16.9H878.7c-9.3,0-16.9-7.6-16.9-16.9
		l0,0C861.8,608.7,869.4,601.1,878.7,601.1z"/>
	<path class="st8" d="M244.4,622.4c-20.6-20.4-53.8-20.4-74.5,0C151,641,142.2,670.7,144,704.7c2.7,51.5,123.6,51.5,126.3,0
		C272.1,670.7,263.3,641,244.4,622.4z"/>
	<line class="st9" x1="207.2" y1="652.4" x2="207.2" y2="763.6"/>
	<path class="st9" d="M238.7,676.5c0,0-6.7,25.5-31.6,29.1"/>
	<path class="st10" d="M369,536.9c-28-33.5-72.7-33.5-100.8,0c-25.6,30.6-37.5,79.6-35.1,135.7c3.6,85,167.2,85,170.9,0
		C406.5,616.5,394.6,567.5,369,536.9z"/>
	<line class="st9" x1="318.6" y1="574" x2="318.6" y2="763.6"/>
	<path class="st9" d="M361.3,645.7c0,0-9.1,34.5-42.7,39.4"/>
	<path class="st8" d="M1738.7,472.3l-4.7,10.6l-2.4-16.1c-4.3,1-9,2.2-13.7,3.7l-0.2,27.1l-6.7-24.6c-5.1,2-10.1,4.4-14.8,7.1
		l11.9,37.2l-12.9-23.7l-7.5-7.9c-6.8,5-12.7,11.2-17.2,18.4l10.7,5.8l10.4,22.5l-11.4-10.2l-15.1-8.4c-3.8,7.5-6.6,15.5-8.4,23.7
		l33.3,8.7l-24-1.1l-10.7,3.8c-0.3,6.6,0.6,13.2,2.7,19.5l23.7-5.1l-20.4,12.7c2.5,4.6,5.7,8.8,9.5,12.5l19.2-14.6l-0.2,25.2
		c4.1,1,8.4,1.4,12.7,1.4l-1.6-23.5l8.2,23c5.2-0.7,10.3-2,15.1-4l-11.5-28.1l18.4,24.7c8.5-5,16.1-11.5,22.4-19.2
		c1-1.1,1.8-2.3,2.7-3.4l-41.3-17.7l46.3,9.9c2.8-5.2,5-10.8,6.4-16.6l-44.7-8.9l16.4-2.8l23.7,3.4l6.5-1.6c0.7-6,0.9-12,0.6-18
		l-21.8,3.2l-18.3-2.6l11-5.8l16.6-0.3l11.9-2c-0.4-3.8-1-7.5-1.7-11l-29.3,1.2l27.6-9c-1.4-5.7-3.2-11.2-5.2-16.7l-17.1,10.9
		l9.3-13.1l3.6-8.1l-0.4-0.8c-5.2,0.2-10.4,0.8-15.6,1.7L1738.7,472.3z"/>
	<path class="st9" d="M1726.2,498.2c0,0-56.4,80-56.7,188"/>
	<path class="st10" d="M1575.5,484.4l5.5,10.2l1-16.2c4.4,0.6,9.1,1.4,14,2.6l2.5,27l4.6-25.1c5.3,1.5,10.4,3.5,15.4,5.8l-8.7,38.1
		l10.9-24.7l6.8-8.5c7.2,4.4,13.6,10.1,18.7,16.9l-10.2,6.7l-8.4,23.3l10.5-11.1l14.3-9.6c4.4,7.2,7.9,14.9,10.4,22.9l-32.4,11.4
		l23.8-3.1l11,2.9c0.9,6.6,0.5,13.2-1,19.7l-24-3.1l21.4,10.9c-2.1,4.8-4.9,9.3-8.4,13.2l-20.3-13l2.3,25.1
		c-4.1,1.3-8.3,2.1-12.5,2.5l-0.4-23.5l-6.3,23.7c-5.3-0.2-10.4-1.2-15.4-2.8l9.1-29l-16.3,26.1c-8.9-4.3-17.1-10.1-24-17.2
		c-1.1-1-2-2.1-3-3.2l39.7-21.2l-45.3,13.8c-3.3-5-5.9-10.4-7.8-16l43.8-12.6l-16.6-1.5l-23.3,5.4l-6.6-1
		c-1.2-5.9-1.9-11.9-2.1-17.9l22,1.4l18-4.2l-11.4-4.9l-16.6,1.1l-12-1c0.1-3.8,0.4-7.5,0.8-11.1l29.3-1.2l-28.2-6.6
		c1-5.8,2.2-11.5,3.8-17.1l18,9.4l-10.3-12.2l-4.3-7.8c0.2-0.5,0.3-0.8,0.3-0.8c5.2-0.2,10.5-0.1,15.7,0.4L1575.5,484.4z"/>
	<path class="st9" d="M1589.7,511.7c0,0,52.8,68.1,76,175"/>
	<path class="st11" d="M1666.7,766.2L1666.7,766.2c-32.9,0-59.5-26.6-59.5-59.5l0,0v-20h119v20
		C1726.2,739.6,1699.6,766.2,1666.7,766.2z"/>
</g>
<g id="Layer_3">
	<g>
		<path class="st7" d="M912.9,351.3h2l3.2,12.4l3.5-12.4h2.1l3.4,12.4l3.2-12.4h2.1l-4.2,14.6H926l-3.4-11.8l-3.5,11.8l-2.1,0
			L912.9,351.3z"/>
		<path class="st7" d="M934.5,350.4h1.9v5.7c0.8-1.2,2.2-1.9,3.8-1.9c2.6,0,4.6,1.6,4.6,4.9v6.8h-1.9v-6.5c0-2.4-1.3-3.5-3.2-3.5
			c-2,0-3.3,1.2-3.3,3.7v6.4h-1.9V350.4z"/>
		<path class="st7" d="M953,366.1c-3.3,0-5.7-2.3-5.7-6c0-3.6,2.6-5.9,5.8-5.9c3.3,0,5.8,2.3,5.8,5.9
			C958.9,363.8,956.2,366.1,953,366.1z M953,364.4c2,0,3.9-1.4,3.9-4.3c0-2.9-1.9-4.3-3.9-4.3c-2,0-3.8,1.4-3.8,4.3
			C949.2,363,951,364.4,953,364.4z"/>
		<path class="st7" d="M966.4,366.1c-3.3,0-5.7-2.3-5.7-6c0-3.6,2.6-5.9,5.8-5.9c3.3,0,5.8,2.3,5.8,5.9
			C972.3,363.8,969.7,366.1,966.4,366.1z M966.4,364.4c2,0,3.9-1.4,3.9-4.3c0-2.9-1.9-4.3-3.9-4.3c-2,0-3.8,1.4-3.8,4.3
			C962.6,363,964.4,364.4,966.4,364.4z"/>
		<path class="st7" d="M981,354.2c3.1,0,5.5,2.3,5.5,5.9c0,3.6-2.4,6-5.5,6c-2.1,0-3.6-1.1-4.3-2.3v7.6h-1.9v-17h1.9v2.1
			C977.4,355.3,978.9,354.2,981,354.2z M980.6,355.9c-2.1,0-3.9,1.6-3.9,4.3c0,2.7,1.8,4.3,3.9,4.3c2.1,0,3.9-1.6,3.9-4.3
			S982.7,355.9,980.6,355.9z"/>
		<path class="st7" d="M993.1,366.1c-2.7,0-4.6-1.5-4.7-3.6h2c0.1,1.1,1.1,2,2.7,2c1.5,0,2.4-0.8,2.4-1.7c0-2.6-6.8-1.1-6.8-5.4
			c0-1.8,1.7-3.2,4.2-3.2c2.5,0,4.2,1.4,4.3,3.6h-1.9c-0.1-1.2-1-2-2.5-2c-1.4,0-2.2,0.7-2.2,1.6c0,2.7,6.7,1.2,6.8,5.4
			C997.3,364.7,995.6,366.1,993.1,366.1z"/>
		<path class="st7" d="M1001.5,366c-0.7,0-1.3-0.6-1.3-1.3s0.6-1.3,1.3-1.3c0.7,0,1.3,0.6,1.3,1.3S1002.2,366,1001.5,366z
			 M1000.4,351.3h2.1l-0.2,10.5h-1.6L1000.4,351.3z"/>
		<path d="M769,401.7h9.9v1.6h-4v13.1H773v-13.1h-4V401.7z"/>
		<path d="M781.2,400.8h1.9v5.7c0.8-1.2,2.2-1.9,3.8-1.9c2.6,0,4.6,1.6,4.6,4.9v6.8h-1.9v-6.5c0-2.4-1.3-3.5-3.2-3.5
			c-2,0-3.3,1.2-3.3,3.7v6.4h-1.9V400.8z"/>
		<path d="M799.7,416.5c-3.3,0-5.7-2.3-5.7-6c0-3.6,2.3-5.9,5.7-5.9c3.3,0,5.5,2.4,5.5,5.5c0,0.4,0,0.8-0.1,1.2h-9.2
			c0.1,2.3,1.8,3.6,3.7,3.6c1.7,0,2.8-0.9,3.2-2.1h2.1C804.4,414.9,802.5,416.5,799.7,416.5z M795.9,409.7h7.3
			c0-2.2-1.7-3.5-3.6-3.5C797.7,406.2,796.1,407.5,795.9,409.7z"/>
		<path d="M817.4,416.5c-2.7,0-4.6-1.5-4.7-3.6h2c0.1,1.1,1.1,2,2.7,2c1.5,0,2.4-0.8,2.4-1.7c0-2.6-6.8-1.1-6.8-5.4
			c0-1.8,1.7-3.2,4.2-3.2c2.5,0,4.2,1.4,4.3,3.6h-1.9c-0.1-1.2-1-2-2.5-2c-1.4,0-2.2,0.7-2.2,1.6c0,2.7,6.7,1.2,6.8,5.4
			C821.6,415.1,819.9,416.5,817.4,416.5z"/>
		<path d="M825,404.8l3.6,9.7l3.6-9.7h2l-4.5,11.5h-2.2l-4.5-11.5H825z"/>
		<path d="M840.8,404.6c2.1,0,3.6,1,4.3,2.3v-2.1h1.9v11.8c0,3.2-2.1,5.4-5.5,5.4c-3,0-5.2-1.5-5.6-4h1.9c0.4,1.4,1.8,2.3,3.7,2.3
			c2,0,3.6-1.3,3.6-3.8v-2.4c-0.7,1.2-2.2,2.4-4.3,2.4c-3.1,0-5.5-2.4-5.5-6C835.3,406.9,837.7,404.6,840.8,404.6z M841.2,406.3
			c-2.1,0-3.9,1.5-3.9,4.2s1.8,4.3,3.9,4.3s3.9-1.6,3.9-4.3C845.1,407.9,843.3,406.3,841.2,406.3z"/>
		<path d="M856.2,406.4h-1.5v-1.6h1.5V404c0-2.6,1.3-3.7,4.2-3.7v1.6c-1.7,0-2.3,0.6-2.3,2.1v0.8h2.4v1.6h-2.4v9.9h-1.9V406.4z"/>
		<path d="M862.4,401.6c0-0.7,0.6-1.3,1.3-1.3c0.7,0,1.3,0.6,1.3,1.3s-0.6,1.3-1.3,1.3C863,402.9,862.4,402.4,862.4,401.6z
			 M862.8,404.8h1.9v11.5h-1.9V404.8z"/>
		<path d="M867.9,400.8h1.9v15.5h-1.9V400.8z"/>
		<path d="M878.1,416.5c-3.3,0-5.7-2.3-5.7-6c0-3.6,2.3-5.9,5.7-5.9c3.3,0,5.5,2.4,5.5,5.5c0,0.4,0,0.8-0.1,1.2h-9.2
			c0.1,2.3,1.8,3.6,3.7,3.6c1.7,0,2.8-0.9,3.2-2.1h2.1C882.8,414.9,880.9,416.5,878.1,416.5z M874.3,409.7h7.3
			c0-2.2-1.7-3.5-3.6-3.5C876.1,406.2,874.6,407.5,874.3,409.7z"/>
		<path d="M891.7,400.8h1.9v5.7c0.8-1.2,2.2-1.9,3.8-1.9c2.6,0,4.6,1.6,4.6,4.9v6.8h-1.9v-6.5c0-2.4-1.3-3.5-3.2-3.5
			c-2,0-3.3,1.2-3.3,3.7v6.4h-1.9V400.8z"/>
		<path d="M909.9,404.6c2.1,0,3.6,1.1,4.3,2.3v-2.1h1.9v11.5h-1.9v-2.1c-0.7,1.2-2.2,2.3-4.3,2.3c-3.1,0-5.4-2.4-5.4-6
			C904.4,406.9,906.8,404.6,909.9,404.6z M910.3,406.3c-2.1,0-3.9,1.5-3.9,4.2s1.8,4.3,3.9,4.3s3.9-1.6,3.9-4.3
			C914.2,407.9,912.4,406.3,910.3,406.3z"/>
		<path d="M923.4,416.5c-2.7,0-4.6-1.5-4.7-3.6h2c0.1,1.1,1.1,2,2.7,2c1.5,0,2.4-0.8,2.4-1.7c0-2.6-6.8-1.1-6.8-5.4
			c0-1.8,1.7-3.2,4.2-3.2c2.5,0,4.2,1.4,4.3,3.6h-1.9c-0.1-1.2-1-2-2.5-2c-1.4,0-2.2,0.7-2.2,1.6c0,2.7,6.7,1.2,6.8,5.4
			C927.6,415.1,926,416.5,923.4,416.5z"/>
		<path d="M944.3,409.8c0-2.4-1.3-3.5-3.2-3.5c-2,0-3.3,1.2-3.3,3.7v6.4h-1.9v-11.5h1.9v1.6c0.8-1.2,2.1-1.8,3.7-1.8
			c2.7,0,4.7,1.6,4.7,4.9v6.8h-1.9V409.8z"/>
		<path d="M954.4,416.5c-3.3,0-5.7-2.3-5.7-6c0-3.6,2.6-5.9,5.8-5.9c3.3,0,5.8,2.3,5.8,5.9C960.3,414.2,957.7,416.5,954.4,416.5z
			 M954.4,414.8c2,0,3.9-1.4,3.9-4.3c0-2.9-1.9-4.3-3.9-4.3c-2,0-3.8,1.4-3.8,4.3C950.6,413.4,952.4,414.8,954.4,414.8z"/>
		<path d="M969.1,404.8l3.6,9.7l3.6-9.7h2l-4.5,11.5h-2.2l-4.5-11.5H969.1z"/>
		<path d="M984.9,404.6c2.1,0,3.6,1.1,4.3,2.3v-2.1h1.9v11.5h-1.9v-2.1c-0.7,1.2-2.2,2.3-4.3,2.3c-3.1,0-5.4-2.4-5.4-6
			C979.5,406.9,981.8,404.6,984.9,404.6z M985.3,406.3c-2.1,0-3.9,1.5-3.9,4.2s1.8,4.3,3.9,4.3s3.9-1.6,3.9-4.3
			C989.2,407.9,987.4,406.3,985.3,406.3z"/>
		<path d="M994.4,400.8h1.9v15.5h-1.9V400.8z"/>
		<path d="M999.2,401.6c0-0.7,0.6-1.3,1.3-1.3c0.7,0,1.3,0.6,1.3,1.3s-0.6,1.3-1.3,1.3C999.8,402.9,999.2,402.4,999.2,401.6z
			 M999.5,404.8h1.9v11.5h-1.9V404.8z"/>
		<path d="M1009.5,404.6c1.8,0,3.5,0.9,4.3,2.2v-6.1h1.9v15.5h-1.9v-2.2c-0.7,1.3-2.2,2.4-4.3,2.4c-3.1,0-5.5-2.4-5.5-6
			C1004,406.9,1006.4,404.6,1009.5,404.6z M1009.8,406.3c-2.1,0-3.9,1.5-3.9,4.2s1.8,4.3,3.9,4.3s3.9-1.6,3.9-4.3
			C1013.7,407.9,1011.9,406.3,1009.8,406.3z"/>
		<path d="M1029.3,404.6c1.8,0,3.5,0.9,4.3,2.2v-6.1h1.9v15.5h-1.9v-2.2c-0.7,1.3-2.2,2.4-4.3,2.4c-3.1,0-5.5-2.4-5.5-6
			C1023.8,406.9,1026.2,404.6,1029.3,404.6z M1029.6,406.3c-2.1,0-3.9,1.5-3.9,4.2s1.8,4.3,3.9,4.3s3.9-1.6,3.9-4.3
			C1033.5,407.9,1031.7,406.3,1029.6,406.3z"/>
		<path d="M1038.4,401.6c0-0.7,0.6-1.3,1.3-1.3c0.7,0,1.3,0.6,1.3,1.3s-0.6,1.3-1.3,1.3C1039,402.9,1038.4,402.4,1038.4,401.6z
			 M1038.7,404.8h1.9v11.5h-1.9V404.8z"/>
		<path d="M1060.5,409.8c0-2.4-1.3-3.5-3.1-3.5c-1.9,0-3.3,1.2-3.3,3.7v6.3h-1.9v-6.5c0-2.4-1.3-3.5-3.1-3.5c-1.9,0-3.3,1.2-3.3,3.7
			v6.3h-1.9v-11.5h1.9v1.7c0.8-1.2,2.1-1.9,3.6-1.9c1.9,0,3.5,0.8,4.2,2.6c0.7-1.7,2.3-2.6,4.1-2.6c2.6,0,4.7,1.6,4.7,4.9v6.8h-1.9
			V409.8z"/>
		<path d="M1070.5,416.5c-3.3,0-5.7-2.3-5.7-6c0-3.6,2.3-5.9,5.7-5.9c3.3,0,5.5,2.4,5.5,5.5c0,0.4,0,0.8-0.1,1.2h-9.2
			c0.1,2.3,1.8,3.6,3.7,3.6c1.7,0,2.8-0.9,3.2-2.1h2.1C1075.2,414.9,1073.3,416.5,1070.5,416.5z M1066.8,409.7h7.3
			c0-2.2-1.7-3.5-3.6-3.5C1068.5,406.2,1067,407.5,1066.8,409.7z"/>
		<path d="M1086.9,409.8c0-2.4-1.3-3.5-3.2-3.5c-2,0-3.3,1.2-3.3,3.7v6.4h-1.9v-11.5h1.9v1.6c0.8-1.2,2.1-1.8,3.7-1.8
			c2.7,0,4.7,1.6,4.7,4.9v6.8h-1.9V409.8z"/>
		<path d="M1096,416.5c-2.7,0-4.6-1.5-4.7-3.6h2c0.1,1.1,1.1,2,2.7,2c1.5,0,2.4-0.8,2.4-1.7c0-2.6-6.8-1.1-6.8-5.4
			c0-1.8,1.7-3.2,4.2-3.2c2.5,0,4.2,1.4,4.3,3.6h-1.9c-0.1-1.2-1-2-2.5-2c-1.4,0-2.2,0.7-2.2,1.6c0,2.7,6.7,1.2,6.8,5.4
			C1100.2,415.1,1098.6,416.5,1096,416.5z"/>
		<path d="M1102.6,401.6c0-0.7,0.6-1.3,1.3-1.3c0.7,0,1.3,0.6,1.3,1.3s-0.6,1.3-1.3,1.3C1103.2,402.9,1102.6,402.4,1102.6,401.6z
			 M1102.9,404.8h1.9v11.5h-1.9V404.8z"/>
		<path d="M1113.1,416.5c-3.3,0-5.7-2.3-5.7-6c0-3.6,2.6-5.9,5.8-5.9c3.3,0,5.8,2.3,5.8,5.9C1119,414.2,1116.4,416.5,1113.1,416.5z
			 M1113.1,414.8c2,0,3.9-1.4,3.9-4.3c0-2.9-1.9-4.3-3.9-4.3c-2,0-3.8,1.4-3.8,4.3C1109.3,413.4,1111.1,414.8,1113.1,414.8z"/>
		<path d="M1130,409.8c0-2.4-1.3-3.5-3.2-3.5c-2,0-3.3,1.2-3.3,3.7v6.4h-1.9v-11.5h1.9v1.6c0.8-1.2,2.1-1.8,3.7-1.8
			c2.7,0,4.7,1.6,4.7,4.9v6.8h-1.9V409.8z"/>
		<path d="M1139,416.5c-2.7,0-4.6-1.5-4.7-3.6h2c0.1,1.1,1.1,2,2.7,2c1.5,0,2.4-0.8,2.4-1.7c0-2.6-6.8-1.1-6.8-5.4
			c0-1.8,1.7-3.2,4.2-3.2c2.5,0,4.2,1.4,4.3,3.6h-1.9c-0.1-1.2-1-2-2.5-2c-1.4,0-2.2,0.7-2.2,1.6c0,2.7,6.7,1.2,6.8,5.4
			C1143.2,415.1,1141.6,416.5,1139,416.5z"/>
		<path d="M1146.5,416.4c-0.7,0-1.3-0.6-1.3-1.3s0.6-1.3,1.3-1.3c0.7,0,1.3,0.6,1.3,1.3S1147.2,416.4,1146.5,416.4z"/>
		<path d="M725.2,453.6h-6v4.9h5.3v1.6h-5.3v5h6v1.6h-7.9V452h7.9V453.6z"/>
		<path d="M727.8,452c0-0.7,0.6-1.3,1.3-1.3c0.7,0,1.3,0.6,1.3,1.3c0,0.7-0.6,1.3-1.3,1.3C728.3,453.3,727.8,452.8,727.8,452z
			 M728.1,455.2h1.9v11.5h-1.9V455.2z"/>
		<path d="M733.7,456.8h-1.5v-1.6h1.5v-2.9h1.9v2.9h3v1.6h-3v6.8c0,1.1,0.4,1.5,1.6,1.5h1.4v1.6h-1.7c-2,0-3.2-0.8-3.2-3.1V456.8z"
			/>
		<path d="M740.9,451.2h1.9v5.7c0.8-1.2,2.2-1.9,3.8-1.9c2.6,0,4.6,1.6,4.6,4.9v6.8h-1.9v-6.5c0-2.4-1.3-3.5-3.2-3.5
			c-2,0-3.3,1.2-3.3,3.7v6.4h-1.9V451.2z"/>
		<path d="M759.3,466.9c-3.3,0-5.7-2.3-5.7-6c0-3.6,2.3-5.9,5.7-5.9c3.3,0,5.5,2.4,5.5,5.5c0,0.4,0,0.8-0.1,1.2h-9.2
			c0.1,2.3,1.8,3.6,3.7,3.6c1.7,0,2.8-0.9,3.2-2.1h2.1C764,465.3,762.2,466.9,759.3,466.9z M755.6,460.1h7.3c0-2.2-1.7-3.5-3.6-3.5
			C757.3,456.6,755.8,457.9,755.6,460.1z"/>
		<path d="M769.3,466.7h-1.9v-11.5h1.9v1.9c0.7-1.3,1.9-2.1,3.7-2.1v2h-0.5c-1.8,0-3.2,0.8-3.2,3.5V466.7z"/>
		<path d="M785.5,455c2.1,0,3.6,1.1,4.3,2.3v-2.1h1.9v11.5h-1.9v-2.1c-0.7,1.2-2.2,2.3-4.3,2.3c-3.1,0-5.4-2.4-5.4-6
			C780.1,457.3,782.4,455,785.5,455z M785.9,456.7c-2.1,0-3.9,1.5-3.9,4.2s1.8,4.3,3.9,4.3s3.9-1.6,3.9-4.3
			C789.8,458.3,788,456.7,785.9,456.7z"/>
		<path d="M801.3,455.2l3.6,9.7l3.6-9.7h2l-4.5,11.5h-2.2l-4.5-11.5H801.3z"/>
		<path d="M812.1,452c0-0.7,0.6-1.3,1.3-1.3c0.7,0,1.3,0.6,1.3,1.3c0,0.7-0.6,1.3-1.3,1.3C812.6,453.3,812.1,452.8,812.1,452z
			 M812.4,455.2h1.9v11.5h-1.9V455.2z"/>
		<path d="M822.5,466.9c-3.3,0-5.7-2.3-5.7-6c0-3.6,2.3-5.9,5.7-5.9c3.3,0,5.5,2.4,5.5,5.5c0,0.4,0,0.8-0.1,1.2h-9.2
			c0.1,2.3,1.8,3.6,3.7,3.6c1.7,0,2.8-0.9,3.2-2.1h2.1C827.2,465.3,825.4,466.9,822.5,466.9z M818.8,460.1h7.3
			c0-2.2-1.7-3.5-3.6-3.5C820.6,456.6,819,457.9,818.8,460.1z"/>
		<path d="M829.2,455.2h2l2.6,9.7l2.9-9.7h2l2.8,9.7l2.6-9.7h1.9l-3.6,11.5h-2l-2.8-9.1l-2.8,9.1h-2L829.2,455.2z"/>
		<path d="M854,455c3.1,0,5.5,2.3,5.5,5.9c0,3.6-2.4,6-5.5,6c-2.1,0-3.6-1-4.3-2.3v2.1h-1.9v-15.5h1.9v6.2
			C850.4,456.1,852,455,854,455z M853.6,456.7c-2.1,0-3.9,1.6-3.9,4.3c0,2.7,1.8,4.3,3.9,4.3c2.1,0,3.9-1.6,3.9-4.3
			S855.7,456.7,853.6,456.7z"/>
		<path d="M867,466.9c-3.3,0-5.7-2.3-5.7-6c0-3.6,2.6-5.9,5.8-5.9c3.3,0,5.8,2.3,5.8,5.9C872.9,464.6,870.3,466.9,867,466.9z
			 M867,465.2c2,0,3.9-1.4,3.9-4.3c0-2.9-1.9-4.3-3.9-4.3c-2,0-3.8,1.4-3.8,4.3C863.2,463.8,865,465.2,867,465.2z"/>
		<path d="M878.7,462.4l-2.6,4.3h-2l3.7-5.7l-3.7-5.8h2.2l2.7,4.3l2.6-4.3h2l-3.7,5.7l3.7,5.8h-2.2L878.7,462.4z"/>
		<path d="M896.1,466.9c-3.3,0-5.7-2.3-5.7-6c0-3.6,2.6-5.9,5.8-5.9c3.3,0,5.8,2.3,5.8,5.9C902,464.6,899.4,466.9,896.1,466.9z
			 M896.1,465.2c2,0,3.9-1.4,3.9-4.3c0-2.9-1.9-4.3-3.9-4.3c-2,0-3.8,1.4-3.8,4.3C892.3,463.8,894.1,465.2,896.1,465.2z"/>
		<path d="M906.4,466.7h-1.9v-11.5h1.9v1.9c0.7-1.3,1.9-2.1,3.7-2.1v2h-0.5c-1.8,0-3.2,0.8-3.2,3.5V466.7z"/>
		<path d="M916.6,455.2h2l2.6,9.7l2.9-9.7h2l2.8,9.7l2.6-9.7h1.9l-3.6,11.5h-2l-2.8-9.1l-2.8,9.1h-2L916.6,455.2z"/>
		<path d="M934.9,452c0-0.7,0.6-1.3,1.3-1.3c0.7,0,1.3,0.6,1.3,1.3c0,0.7-0.6,1.3-1.3,1.3C935.4,453.3,934.9,452.8,934.9,452z
			 M935.2,455.2h1.9v11.5h-1.9V455.2z"/>
		<path d="M945.1,455c1.8,0,3.5,0.9,4.3,2.2v-6.1h1.9v15.5h-1.9v-2.2c-0.7,1.3-2.2,2.4-4.3,2.4c-3.1,0-5.5-2.4-5.5-6
			C939.6,457.3,942,455,945.1,455z M945.5,456.7c-2.1,0-3.9,1.5-3.9,4.2s1.8,4.3,3.9,4.3s3.9-1.6,3.9-4.3
			C949.4,458.3,947.6,456.7,945.5,456.7z"/>
		<path d="M955,456.8h-1.5v-1.6h1.5v-2.9h1.9v2.9h3v1.6h-3v6.8c0,1.1,0.4,1.5,1.6,1.5h1.4v1.6h-1.7c-2,0-3.2-0.8-3.2-3.1V456.8z"/>
		<path d="M962.2,451.2h1.9v5.7c0.8-1.2,2.2-1.9,3.8-1.9c2.6,0,4.6,1.6,4.6,4.9v6.8h-1.9v-6.5c0-2.4-1.3-3.5-3.2-3.5
			c-2,0-3.3,1.2-3.3,3.7v6.4h-1.9V451.2z"/>
		<path d="M986,455c2.1,0,3.6,1.1,4.3,2.3v-2.1h1.9v11.5h-1.9v-2.1c-0.7,1.2-2.2,2.3-4.3,2.3c-3.1,0-5.4-2.4-5.4-6
			C980.5,457.3,982.9,455,986,455z M986.4,456.7c-2.1,0-3.9,1.5-3.9,4.2s1.8,4.3,3.9,4.3s3.9-1.6,3.9-4.3
			C990.3,458.3,988.5,456.7,986.4,456.7z"/>
		<path d="M1003.8,460.2c0-2.4-1.3-3.5-3.2-3.5c-2,0-3.3,1.2-3.3,3.7v6.4h-1.9v-11.5h1.9v1.6c0.8-1.2,2.1-1.8,3.7-1.8
			c2.7,0,4.7,1.6,4.7,4.9v6.8h-1.9V460.2z"/>
		<path d="M1013.6,455c1.8,0,3.5,0.9,4.3,2.2v-6.1h1.9v15.5h-1.9v-2.2c-0.7,1.3-2.2,2.4-4.3,2.4c-3.1,0-5.5-2.4-5.5-6
			C1008.1,457.3,1010.5,455,1013.6,455z M1014,456.7c-2.1,0-3.9,1.5-3.9,4.2s1.8,4.3,3.9,4.3s3.9-1.6,3.9-4.3
			C1017.9,458.3,1016.1,456.7,1014,456.7z"/>
		<path d="M1028.7,451.2h1.9v5.7c0.8-1.2,2.2-1.9,3.8-1.9c2.6,0,4.6,1.6,4.6,4.9v6.8h-1.9v-6.5c0-2.4-1.3-3.5-3.2-3.5
			c-2,0-3.3,1.2-3.3,3.7v6.4h-1.9V451.2z"/>
		<path d="M1047.1,466.9c-3.3,0-5.7-2.3-5.7-6c0-3.6,2.3-5.9,5.7-5.9c3.3,0,5.5,2.4,5.5,5.5c0,0.4,0,0.8-0.1,1.2h-9.2
			c0.1,2.3,1.8,3.6,3.7,3.6c1.7,0,2.8-0.9,3.2-2.1h2.1C1051.8,465.3,1049.9,466.9,1047.1,466.9z M1043.4,460.1h7.3
			c0-2.2-1.7-3.5-3.6-3.5C1045.1,456.6,1043.6,457.9,1043.4,460.1z"/>
		<path d="M1054.8,452c0-0.7,0.6-1.3,1.3-1.3c0.7,0,1.3,0.6,1.3,1.3c0,0.7-0.6,1.3-1.3,1.3C1055.4,453.3,1054.8,452.8,1054.8,452z
			 M1055.1,455.2h1.9v11.5h-1.9V455.2z"/>
		<path d="M1065,455c2.1,0,3.6,1,4.3,2.3v-2.1h1.9V467c0,3.2-2.1,5.4-5.5,5.4c-3,0-5.2-1.5-5.6-4h1.9c0.4,1.4,1.8,2.3,3.7,2.3
			c2,0,3.6-1.3,3.6-3.8v-2.4c-0.7,1.2-2.2,2.4-4.3,2.4c-3.1,0-5.5-2.4-5.5-6C1059.6,457.3,1062,455,1065,455z M1065.4,456.7
			c-2.1,0-3.9,1.5-3.9,4.2s1.8,4.3,3.9,4.3s3.9-1.6,3.9-4.3C1069.3,458.3,1067.5,456.7,1065.4,456.7z"/>
		<path d="M1074.5,451.2h1.9v5.7c0.8-1.2,2.2-1.9,3.8-1.9c2.6,0,4.6,1.6,4.6,4.9v6.8h-1.9v-6.5c0-2.4-1.3-3.5-3.2-3.5
			c-2,0-3.3,1.2-3.3,3.7v6.4h-1.9V451.2z"/>
		<path d="M1088.3,456.8h-1.5v-1.6h1.5v-2.9h1.9v2.9h3v1.6h-3v6.8c0,1.1,0.4,1.5,1.6,1.5h1.4v1.6h-1.7c-2,0-3.2-0.8-3.2-3.1V456.8z"
			/>
		<path d="M1105.9,455c2.1,0,3.6,1.1,4.3,2.3v-2.1h1.9v11.5h-1.9v-2.1c-0.7,1.2-2.2,2.3-4.3,2.3c-3.1,0-5.4-2.4-5.4-6
			C1100.5,457.3,1102.8,455,1105.9,455z M1106.3,456.7c-2.1,0-3.9,1.5-3.9,4.2s1.8,4.3,3.9,4.3s3.9-1.6,3.9-4.3
			C1110.2,458.3,1108.4,456.7,1106.3,456.7z"/>
		<path d="M1115.8,456.8h-1.5v-1.6h1.5v-2.9h1.9v2.9h3v1.6h-3v6.8c0,1.1,0.4,1.5,1.6,1.5h1.4v1.6h-1.7c-2,0-3.2-0.8-3.2-3.1V456.8z"
			/>
		<path d="M1123.4,456.8h-1.5v-1.6h1.5v-2.9h1.9v2.9h3v1.6h-3v6.8c0,1.1,0.4,1.5,1.6,1.5h1.4v1.6h-1.7c-2,0-3.2-0.8-3.2-3.1V456.8z"
			/>
		<path d="M1132.6,466.7h-1.9v-11.5h1.9v1.9c0.7-1.3,1.9-2.1,3.7-2.1v2h-0.5c-1.8,0-3.2,0.8-3.2,3.5V466.7z"/>
		<path d="M1138.2,452c0-0.7,0.6-1.3,1.3-1.3c0.7,0,1.3,0.6,1.3,1.3c0,0.7-0.6,1.3-1.3,1.3C1138.7,453.3,1138.2,452.8,1138.2,452z
			 M1138.5,455.2h1.9v11.5h-1.9V455.2z"/>
		<path d="M1149.9,455c3.1,0,5.5,2.3,5.5,5.9c0,3.6-2.4,6-5.5,6c-2.1,0-3.6-1-4.3-2.3v2.1h-1.9v-15.5h1.9v6.2
			C1146.3,456.1,1147.8,455,1149.9,455z M1149.5,456.7c-2.1,0-3.9,1.6-3.9,4.3c0,2.7,1.8,4.3,3.9,4.3c2.1,0,3.9-1.6,3.9-4.3
			S1151.6,456.7,1149.5,456.7z"/>
		<path d="M1168.1,466.7h-1.9V465c-0.7,1.2-2.1,1.9-3.7,1.9c-2.6,0-4.7-1.6-4.7-4.9v-6.7h1.9v6.5c0,2.3,1.3,3.5,3.2,3.5
			c2,0,3.3-1.2,3.3-3.7v-6.3h1.9V466.7z"/>
		<path d="M1171.7,456.8h-1.5v-1.6h1.5v-2.9h1.9v2.9h3v1.6h-3v6.8c0,1.1,0.4,1.5,1.6,1.5h1.4v1.6h-1.7c-2,0-3.2-0.8-3.2-3.1V456.8z"
			/>
		<path d="M1183.9,466.9c-3.3,0-5.7-2.3-5.7-6c0-3.6,2.3-5.9,5.7-5.9c3.3,0,5.5,2.4,5.5,5.5c0,0.4,0,0.8-0.1,1.2h-9.2
			c0.1,2.3,1.8,3.6,3.7,3.6c1.7,0,2.8-0.9,3.2-2.1h2.1C1188.6,465.3,1186.8,466.9,1183.9,466.9z M1180.2,460.1h7.3
			c0-2.2-1.7-3.5-3.6-3.5C1182,456.6,1180.4,457.9,1180.2,460.1z"/>
		<path d="M1196,466.9c-2.7,0-4.6-1.5-4.7-3.6h2c0.1,1.1,1.1,2,2.7,2c1.5,0,2.4-0.8,2.4-1.7c0-2.6-6.8-1.1-6.8-5.4
			c0-1.8,1.7-3.2,4.2-3.2c2.5,0,4.2,1.4,4.3,3.6h-1.9c-0.1-1.2-1-2-2.5-2c-1.4,0-2.2,0.7-2.2,1.6c0,2.7,6.7,1.2,6.8,5.4
			C1200.2,465.5,1198.6,466.9,1196,466.9z"/>
		<path d="M753.7,485.4c0-2.4-1.3-3.5-3.2-3.5c-2,0-3.3,1.2-3.3,3.7v6.4h-1.9v-11.5h1.9v1.6c0.8-1.2,2.1-1.8,3.7-1.8
			c2.7,0,4.7,1.6,4.7,4.9v6.8h-1.9V485.4z"/>
		<path d="M763.7,492.1c-3.3,0-5.7-2.3-5.7-6c0-3.6,2.3-5.9,5.7-5.9c3.3,0,5.5,2.4,5.5,5.5c0,0.4,0,0.8-0.1,1.2h-9.2
			c0.1,2.3,1.8,3.6,3.7,3.6c1.7,0,2.8-0.9,3.2-2.1h2.1C768.4,490.5,766.5,492.1,763.7,492.1z M759.9,485.3h7.3
			c0-2.2-1.7-3.5-3.6-3.5C761.7,481.8,760.2,483.1,759.9,485.3z"/>
		<path d="M776.7,492.1c-3.3,0-5.7-2.3-5.7-6c0-3.6,2.3-5.9,5.7-5.9c3.3,0,5.5,2.4,5.5,5.5c0,0.4,0,0.8-0.1,1.2h-9.2
			c0.1,2.3,1.8,3.6,3.7,3.6c1.7,0,2.8-0.9,3.2-2.1h2.1C781.4,490.5,779.5,492.1,776.7,492.1z M773,485.3h7.3c0-2.2-1.7-3.5-3.6-3.5
			C774.7,481.8,773.2,483.1,773,485.3z"/>
		<path d="M789.5,480.2c1.8,0,3.5,0.9,4.3,2.2v-6.1h1.9v15.5h-1.9v-2.2c-0.7,1.3-2.2,2.4-4.3,2.4c-3.1,0-5.5-2.4-5.5-6
			C784,482.5,786.4,480.2,789.5,480.2z M789.8,481.9c-2.1,0-3.9,1.5-3.9,4.2s1.8,4.3,3.9,4.3s3.9-1.6,3.9-4.3
			C793.8,483.5,791.9,481.9,789.8,481.9z"/>
		<path d="M804.9,482h-1.5v-1.6h1.5v-2.9h1.9v2.9h3v1.6h-3v6.8c0,1.1,0.4,1.5,1.6,1.5h1.4v1.6h-1.7c-2,0-3.2-0.8-3.2-3.1V482z"/>
		<path d="M817.2,492.1c-3.3,0-5.7-2.3-5.7-6c0-3.6,2.6-5.9,5.8-5.9c3.3,0,5.8,2.3,5.8,5.9C823.1,489.8,820.5,492.1,817.2,492.1z
			 M817.2,490.4c2,0,3.9-1.4,3.9-4.3c0-2.9-1.9-4.3-3.9-4.3c-2,0-3.8,1.4-3.8,4.3C813.4,489,815.2,490.4,817.2,490.4z"/>
		<path d="M837.4,480.2c3.1,0,5.5,2.3,5.5,5.9c0,3.6-2.4,6-5.5,6c-2.1,0-3.6-1.1-4.3-2.3v2.1h-1.9v-15.5h1.9v6.2
			C833.9,481.3,835.4,480.2,837.4,480.2z M837,481.9c-2.1,0-3.9,1.6-3.9,4.3c0,2.7,1.8,4.3,3.9,4.3c2.1,0,3.9-1.6,3.9-4.3
			S839.2,481.9,837,481.9z"/>
		<path d="M850.4,492.1c-3.3,0-5.7-2.3-5.7-6c0-3.6,2.3-5.9,5.7-5.9c3.3,0,5.5,2.4,5.5,5.5c0,0.4,0,0.8-0.1,1.2h-9.2
			c0.1,2.3,1.8,3.6,3.7,3.6c1.7,0,2.8-0.9,3.2-2.1h2.1C855.1,490.5,853.2,492.1,850.4,492.1z M846.7,485.3h7.3
			c0-2.2-1.7-3.5-3.6-3.5C848.4,481.8,846.9,483.1,846.7,485.3z"/>
		<path d="M863.7,477.2c0-0.7,0.6-1.3,1.3-1.3c0.7,0,1.3,0.6,1.3,1.3c0,0.7-0.6,1.3-1.3,1.3C864.3,478.5,863.7,478,863.7,477.2z
			 M864,480.4h1.9v11.5H864V480.4z"/>
		<path d="M877.6,485.4c0-2.4-1.3-3.5-3.2-3.5c-2,0-3.3,1.2-3.3,3.7v6.4h-1.9v-11.5h1.9v1.6c0.8-1.2,2.1-1.8,3.7-1.8
			c2.7,0,4.7,1.6,4.7,4.9v6.8h-1.9V485.4z"/>
		<path d="M887.5,480.2c2.9,0,4.7,1.5,5.3,3.9h-2.1c-0.4-1.4-1.6-2.3-3.3-2.3c-2.1,0-3.7,1.5-3.7,4.3c0,2.9,1.6,4.3,3.7,4.3
			c1.7,0,2.8-0.8,3.3-2.3h2.1c-0.6,2.3-2.5,3.9-5.3,3.9c-3.3,0-5.6-2.3-5.6-6C881.9,482.5,884.3,480.2,887.5,480.2z"/>
		<path d="M895.4,476.4h1.9v15.5h-1.9V476.4z"/>
		<path d="M910.8,491.9h-1.9v-1.7c-0.7,1.2-2.1,1.9-3.7,1.9c-2.6,0-4.7-1.6-4.7-4.9v-6.7h1.9v6.5c0,2.3,1.3,3.5,3.2,3.5
			c2,0,3.3-1.2,3.3-3.7v-6.3h1.9V491.9z"/>
		<path d="M918.8,480.2c1.8,0,3.5,0.9,4.3,2.2v-6.1h1.9v15.5H923v-2.2c-0.7,1.3-2.2,2.4-4.3,2.4c-3.1,0-5.5-2.4-5.5-6
			C913.3,482.5,915.7,480.2,918.8,480.2z M919.1,481.9c-2.1,0-3.9,1.5-3.9,4.2s1.8,4.3,3.9,4.3s3.9-1.6,3.9-4.3
			C923,483.5,921.2,481.9,919.1,481.9z"/>
		<path d="M933.2,492.1c-3.3,0-5.7-2.3-5.7-6c0-3.6,2.3-5.9,5.7-5.9c3.3,0,5.5,2.4,5.5,5.5c0,0.4,0,0.8-0.1,1.2h-9.2
			c0.1,2.3,1.8,3.6,3.7,3.6c1.7,0,2.8-0.9,3.2-2.1h2.1C937.9,490.5,936,492.1,933.2,492.1z M929.5,485.3h7.3c0-2.2-1.7-3.5-3.6-3.5
			C931.2,481.8,929.7,483.1,929.5,485.3z"/>
		<path d="M946,480.2c1.8,0,3.5,0.9,4.3,2.2v-6.1h1.9v15.5h-1.9v-2.2c-0.7,1.3-2.2,2.4-4.3,2.4c-3.1,0-5.5-2.4-5.5-6
			C940.5,482.5,942.9,480.2,946,480.2z M946.3,481.9c-2.1,0-3.9,1.5-3.9,4.2s1.8,4.3,3.9,4.3s3.9-1.6,3.9-4.3
			C950.2,483.5,948.4,481.9,946.3,481.9z"/>
		<path d="M961.4,482h-1.5v-1.6h1.5v-2.9h1.9v2.9h3v1.6h-3v6.8c0,1.1,0.4,1.5,1.6,1.5h1.4v1.6h-1.7c-2,0-3.2-0.8-3.2-3.1V482z"/>
		<path d="M973.7,492.1c-3.3,0-5.7-2.3-5.7-6c0-3.6,2.6-5.9,5.8-5.9c3.3,0,5.8,2.3,5.8,5.9C979.6,489.8,977,492.1,973.7,492.1z
			 M973.7,490.4c2,0,3.9-1.4,3.9-4.3c0-2.9-1.9-4.3-3.9-4.3c-2,0-3.8,1.4-3.8,4.3C969.9,489,971.7,490.4,973.7,490.4z"/>
		<path d="M989.6,491.9h-1.9v-11.5h1.9v1.9c0.7-1.3,1.9-2.1,3.7-2.1v2h-0.5c-1.8,0-3.2,0.8-3.2,3.5V491.9z"/>
		<path d="M1000.5,492.1c-3.3,0-5.7-2.3-5.7-6c0-3.6,2.3-5.9,5.7-5.9c3.3,0,5.5,2.4,5.5,5.5c0,0.4,0,0.8-0.1,1.2h-9.2
			c0.1,2.3,1.8,3.6,3.7,3.6c1.7,0,2.8-0.9,3.2-2.1h2.1C1005.2,490.5,1003.4,492.1,1000.5,492.1z M996.8,485.3h7.3
			c0-2.2-1.7-3.5-3.6-3.5C998.6,481.8,997,483.1,996.8,485.3z"/>
		<path d="M1017,485.4c0-2.4-1.3-3.5-3.2-3.5c-2,0-3.3,1.2-3.3,3.7v6.4h-1.9v-11.5h1.9v1.6c0.8-1.2,2.1-1.8,3.7-1.8
			c2.7,0,4.7,1.6,4.7,4.9v6.8h-1.9V485.4z"/>
		<path d="M1026.8,480.2c1.8,0,3.5,0.9,4.3,2.2v-6.1h1.9v15.5h-1.9v-2.2c-0.7,1.3-2.2,2.4-4.3,2.4c-3.1,0-5.5-2.4-5.5-6
			C1021.3,482.5,1023.7,480.2,1026.8,480.2z M1027.1,481.9c-2.1,0-3.9,1.5-3.9,4.2s1.8,4.3,3.9,4.3s3.9-1.6,3.9-4.3
			C1031,483.5,1029.2,481.9,1027.1,481.9z"/>
		<path d="M1041.2,492.1c-3.3,0-5.7-2.3-5.7-6c0-3.6,2.3-5.9,5.7-5.9c3.3,0,5.5,2.4,5.5,5.5c0,0.4,0,0.8-0.1,1.2h-9.2
			c0.1,2.3,1.8,3.6,3.7,3.6c1.7,0,2.8-0.9,3.2-2.1h2.1C1045.9,490.5,1044,492.1,1041.2,492.1z M1037.5,485.3h7.3
			c0-2.2-1.7-3.5-3.6-3.5C1039.2,481.8,1037.7,483.1,1037.5,485.3z"/>
		<path d="M1051.1,491.9h-1.9v-11.5h1.9v1.9c0.7-1.3,1.9-2.1,3.7-2.1v2h-0.5c-1.8,0-3.2,0.8-3.2,3.5V491.9z"/>
		<path d="M1063.1,482h-1.5v-1.6h1.5v-2.9h1.9v2.9h3v1.6h-3v6.8c0,1.1,0.4,1.5,1.6,1.5h1.4v1.6h-1.7c-2,0-3.2-0.8-3.2-3.1V482z"/>
		<path d="M1070.3,476.4h1.9v5.7c0.8-1.2,2.2-1.9,3.8-1.9c2.6,0,4.6,1.6,4.6,4.9v6.8h-1.9v-6.5c0-2.4-1.3-3.5-3.2-3.5
			c-2,0-3.3,1.2-3.3,3.7v6.4h-1.9V476.4z"/>
		<path d="M1088.7,492.1c-3.3,0-5.7-2.3-5.7-6c0-3.6,2.3-5.9,5.7-5.9c3.3,0,5.5,2.4,5.5,5.5c0,0.4,0,0.8-0.1,1.2h-9.2
			c0.1,2.3,1.8,3.6,3.7,3.6c1.7,0,2.8-0.9,3.2-2.1h2.1C1093.4,490.5,1091.6,492.1,1088.7,492.1z M1085,485.3h7.3
			c0-2.2-1.7-3.5-3.6-3.5C1086.8,481.8,1085.2,483.1,1085,485.3z"/>
		<path d="M1102,477.2c0-0.7,0.6-1.3,1.3-1.3c0.7,0,1.3,0.6,1.3,1.3c0,0.7-0.6,1.3-1.3,1.3C1102.6,478.5,1102,478,1102,477.2z
			 M1102.4,480.4h1.9v11.5h-1.9V480.4z"/>
		<path d="M1124.1,485.4c0-2.4-1.3-3.5-3.1-3.5c-1.9,0-3.3,1.2-3.3,3.7v6.3h-1.9v-6.5c0-2.4-1.3-3.5-3.1-3.5c-1.9,0-3.3,1.2-3.3,3.7
			v6.3h-1.9v-11.5h1.9v1.7c0.8-1.2,2.1-1.9,3.6-1.9c1.9,0,3.5,0.8,4.2,2.6c0.7-1.7,2.3-2.6,4.1-2.6c2.6,0,4.7,1.6,4.7,4.9v6.8h-1.9
			V485.4z"/>
		<path d="M1133.9,480.2c2.1,0,3.6,1.1,4.3,2.3v-2.1h1.9v11.5h-1.9v-2.1c-0.7,1.2-2.2,2.3-4.3,2.3c-3.1,0-5.4-2.4-5.4-6
			C1128.4,482.5,1130.8,480.2,1133.9,480.2z M1134.3,481.9c-2.1,0-3.9,1.5-3.9,4.2s1.8,4.3,3.9,4.3s3.9-1.6,3.9-4.3
			C1138.2,483.5,1136.4,481.9,1134.3,481.9z"/>
		<path d="M1148.1,480.2c2.1,0,3.6,1.1,4.3,2.3v-2.1h1.9v11.8c0,3.2-2.1,5.4-5.5,5.4c-3,0-5.2-1.5-5.6-4h1.9
			c0.4,1.4,1.8,2.3,3.7,2.3c2,0,3.6-1.3,3.6-3.8v-2.4c-0.7,1.2-2.2,2.4-4.3,2.4c-3.1,0-5.5-2.4-5.5-6
			C1142.6,482.5,1145,480.2,1148.1,480.2z M1148.5,481.9c-2.1,0-3.9,1.5-3.9,4.2s1.8,4.3,3.9,4.3s3.9-1.6,3.9-4.3
			C1152.4,483.5,1150.6,481.9,1148.5,481.9z"/>
		<path d="M1162.5,492.1c-3.3,0-5.7-2.3-5.7-6c0-3.6,2.3-5.9,5.7-5.9c3.3,0,5.5,2.4,5.5,5.5c0,0.4,0,0.8-0.1,1.2h-9.2
			c0.1,2.3,1.8,3.6,3.7,3.6c1.7,0,2.8-0.9,3.2-2.1h2.1C1167.2,490.5,1165.4,492.1,1162.5,492.1z M1158.8,485.3h7.3
			c0-2.2-1.7-3.5-3.6-3.5C1160.6,481.8,1159,483.1,1158.8,485.3z"/>
		<path d="M1171.2,492c-0.7,0-1.3-0.6-1.3-1.3s0.6-1.3,1.3-1.3c0.7,0,1.3,0.6,1.3,1.3S1171.9,492,1171.2,492z"/>
	</g>
</g>
</svg>
