<svg id="Layer_1" data-name="Layer 1" xmlns="http://www.w3.org/2000/svg" viewBox="0 0 21 20"><defs><style>.cls-1{fill:none;stroke:#010101;stroke-miterlimit:10;}.cls-2{fill:#010101;}</style></defs><title>Image</title><path class="cls-1" d="M16.64,5.93a1.61,1.61,0,0,1-1.49-1L15,4.54a1.6,1.6,0,0,0-1.48-1h-6A1.6,1.6,0,0,0,6,4.54l-.17.4a1.61,1.61,0,0,1-1.49,1A1.61,1.61,0,0,0,2.75,7.54v7.31a1.61,1.61,0,0,0,1.61,1.6H16.64a1.61,1.61,0,0,0,1.61-1.6V7.54A1.61,1.61,0,0,0,16.64,5.93Z"/><circle class="cls-2" cx="10.5" cy="10.5" r="2.18"/></svg>