<?xml version="1.0" encoding="UTF-8"?>
<svg width="155px" height="79px" viewBox="0 0 155 79" version="1.1" xmlns="http://www.w3.org/2000/svg" xmlns:xlink="http://www.w3.org/1999/xlink">
    <!-- Generator: Sketch 48.1 (47250) - http://www.bohemiancoding.com/sketch -->
    <title>LMW Logo</title>
    <desc>Created with Sketch.</desc>
    <defs>
        <polygon id="path-1" points="0.274092334 0.443689137 101.195434 0.443689137 101.195434 28.7682295 0.274092334 28.7682295"></polygon>
        <polygon id="path-3" points="11.8699225 0.267759121 11.8699225 14.4999065 0.444190935 14.4999065 0.444190935 0.267759121 11.8699225 0.267759121"></polygon>
        <polygon id="path-5" points="19.8499525 14.5471848 0.0172347624 14.5471848 0.0172347624 0.315219311 19.8499525 0.315219311"></polygon>
        <polygon id="path-7" points="0.395709463 14.5471848 9.85280258 14.5471848 9.85280258 0.315219311 0.395709463 0.315219311 0.395709463 14.5471848"></polygon>
    </defs>
    <g id="Header" stroke="none" stroke-width="1" fill="none" fill-rule="evenodd" transform="translate(-76.000000, -24.000000)">
        <g id="LMW-Logo" transform="translate(76.000000, 24.000000)">
            <g id="Page-1">
                <path d="M46.6946695,14.4873141 C64.2529156,23.3815538 76.4536548,21.1735639 76.4536548,22.9124071 C76.4536548,24.6507957 60.2799381,31.8771097 40.7644732,22.5882776 C22.0726466,13.6913103 12.299712,16.0534094 12.299712,14.5950542 C12.299712,13.1371535 27.7178596,4.87389789 46.6946695,14.4873141" id="Fill-1" fill="#0033A0"></path>
                <path d="M112.303752,5.95402637 C129.862452,14.8487207 142.062284,12.6402762 142.062284,14.3791194 C142.062284,16.1179626 125.889021,23.3442766 106.37401,14.0549899 C87.6826369,5.1584772 77.9092485,7.52012173 77.9092485,6.06176645 C77.9092485,4.60386578 93.327396,-3.6589352 112.303752,5.95402637" id="Fill-3" fill="#0033A0"></path>
                <g id="Group-7" transform="translate(27.227715, 0.010910)">
                    <mask id="mask-2" fill="white">
                        <use xlink:href="#path-1"></use>
                    </mask>
                    <g id="Clip-6"></g>
                    <path d="M71.4369029,16.041999 C55.970653,7.70282528 49.926554,12.7479708 34.6695037,5.02477948 C15.6899709,-4.5827269 0.274092334,3.67461889 0.274092334,5.13251956 C0.274092334,6.59087484 11.4338253,3.83691092 28.7393073,13.125743 C41.6334457,20.0470208 48.7943348,16.231567 65.5067065,24.1429625 C85.0412308,33.3913353 101.195434,26.2059352 101.195434,24.467092 C101.195434,22.7282488 89.0659409,25.5476751 71.4369029,16.041999" id="Fill-5" fill="#00A3E0" mask="url(#mask-2)"></path>
                </g>
                <path d="M9.39324413,56.0270276 C9.39324413,56.6989257 8.85005121,57.2430813 8.17934182,57.2430813 L1.21403845,57.2430813 C0.543329059,57.2430813 0.000136138577,56.6989257 0.000136138577,56.0270276 L0.000136138577,44.2269877 C0.000136138577,43.5550896 0.543329059,43.010934 1.21403845,43.010934 L1.34200871,43.010934 C2.0127181,43.010934 2.55591102,43.5550896 2.55591102,44.2269877 L2.55591102,54.3950153 C2.55591102,54.6245881 2.74196707,54.8109739 2.97158747,54.8109739 L8.17934182,54.8109739 C8.85005121,54.8109739 9.39324413,55.3551295 9.39324413,56.0270276" id="Fill-8" fill="#000000"></path>
                <path d="M20.8099159,50.1159154 C20.8099159,45.6990265 18.850428,45.1021373 16.7203131,45.1021373 C14.6115265,45.1021373 12.6520386,45.6990265 12.6520386,50.1159154 C12.6520386,54.5550798 14.6115265,55.1733352 16.7203131,55.1733352 C18.850428,55.1733352 20.8099159,54.5550798 20.8099159,50.1159154 M23.3656908,50.1381908 C23.3656908,56.1543609 19.7448585,57.4140562 16.7203131,57.4140562 C13.6957677,57.4140562 10.0962637,56.1543609 10.0962637,50.1381908 C10.0962637,44.0997453 13.6957677,42.8409592 16.7203131,42.8409592 C19.7448585,42.8409592 23.3656908,44.0997453 23.3656908,50.1381908" id="Fill-10" fill="#000000"></path>
                <path d="M43.9769805,44.6607211 L40.2281779,56.3652951 C40.0607275,56.8880846 39.5751665,57.2431268 39.0269819,57.2431268 L38.2264871,57.2431268 C37.6783024,57.2431268 37.1922877,56.8880846 37.025291,56.3648405 L34.5266943,48.5534569 C34.403262,48.1684111 33.8596153,48.1679565 33.7357292,48.5530023 L31.2194345,56.3671135 C31.0515303,56.8889938 30.5664231,57.2431268 30.0191461,57.2431268 L29.2163823,57.2431268 C28.6681976,57.2431268 28.1826367,56.8880846 28.0151862,56.3652951 L24.2663836,44.6607211 C24.0054513,43.8451696 24.6126294,43.0109795 25.4675797,43.0109795 L25.4875466,43.0109795 C26.0425382,43.0109795 26.5326371,43.3746591 26.6941882,43.9069951 L29.2309037,52.2602614 C29.3493443,52.6498532 29.8988903,52.6543992 30.023684,52.2666258 L32.7214968,43.8869927 C32.8894011,43.3646579 33.3745082,43.0109795 33.9217853,43.0109795 L34.3211251,43.0109795 C34.868856,43.0109795 35.3539631,43.3646579 35.5218673,43.8869927 L38.2210415,52.2707172 C38.3458352,52.6584906 38.8944737,52.6543992 39.013368,52.265262 L41.5695967,43.9047221 C41.7320554,43.3737499 42.2212467,43.0109795 42.7757845,43.0109795 C43.6307347,43.0109795 44.2383666,43.8451696 43.9769805,44.6607211" id="Fill-12" fill="#000000"></path>
                <path d="M48.4559851,48.5052693 C48.4559851,48.7352967 48.6420411,48.9216825 48.8712077,48.9216825 L53.2907197,48.9216825 C53.9260331,48.9216825 54.4406369,49.4371984 54.4406369,50.0736377 L54.4406369,50.1809232 C54.4406369,50.8169079 53.9260331,51.3328784 53.2907197,51.3328784 L48.8712077,51.3328784 C48.6420411,51.3328784 48.4559851,51.5188096 48.4559851,51.7488369 L48.4559851,54.5228032 C48.4559851,54.7528306 48.6420411,54.9387618 48.8712077,54.9387618 L54.2064785,54.9387618 C54.8417919,54.9387618 55.3568495,55.4547323 55.3568495,56.0911716 C55.3568495,56.7271563 54.8417919,57.2431268 54.2064785,57.2431268 L47.0496736,57.2431268 C46.414814,57.2431268 45.8997564,56.7271563 45.8997564,56.0911716 L45.8997564,44.1629347 C45.8997564,43.5269499 46.414814,43.0109795 47.0496736,43.0109795 L54.2064785,43.0109795 C54.8417919,43.0109795 55.3568495,43.5269499 55.3568495,44.1629347 L55.3568495,44.1638439 C55.3568495,44.8002832 54.8417919,45.3157991 54.2064785,45.3157991 L48.8712077,45.3157991 C48.6420411,45.3157991 48.4559851,45.5026395 48.4559851,45.7317576 L48.4559851,48.5052693 Z" id="Fill-14" fill="#000000"></path>
                <path d="M89.7540307,44.291359 L89.7540307,55.9627472 C89.7540307,56.6696495 89.1817949,57.2428995 88.4761432,57.2428995 C87.7700378,57.2428995 87.197802,56.6696495 87.197802,55.9627472 L87.197802,48.0649897 C87.197802,47.6522133 86.6673154,47.4844661 86.4317956,47.8235973 L83.1558477,52.5227926 C82.9879434,52.7632758 82.6326217,52.7632758 82.4651713,52.5227926 L79.1892234,47.8235973 C78.9532498,47.4844661 78.4227632,47.6522133 78.4227632,48.0649897 L78.4227632,55.9627472 C78.4227632,56.6696495 77.8509811,57.2428995 77.1448757,57.2428995 C76.4387703,57.2428995 75.8665345,56.6696495 75.8665345,55.9627472 L75.8665345,44.291359 C75.8665345,43.5840022 76.4387703,43.0112068 77.1448757,43.0112068 L78.0293227,43.0112068 C78.4490833,43.0112068 78.8416162,43.2175949 79.0803125,43.562636 L82.4642637,48.4632189 C82.6317142,48.7055204 82.9893048,48.7055204 83.1567553,48.4632189 L86.5402527,43.562636 C86.7784952,43.2175949 87.1719357,43.0112068 87.5912425,43.0112068 L88.4761432,43.0112068 C89.1817949,43.0112068 89.7540307,43.5840022 89.7540307,44.291359" id="Fill-16" fill="#000000"></path>
                <path d="M102.71288,43.0110249 C103.418532,43.0110249 103.990768,43.5842749 103.990768,44.2911772 L103.990768,51.2251837 C103.990768,55.1520144 101.817996,57.4141017 98.0269905,57.4141017 C94.2568595,57.4141017 92.0840878,55.1520144 92.0840878,51.2251837 L92.0840878,44.2911772 C92.0840878,43.5842749 92.6567774,43.0110249 93.362429,43.0110249 C94.0680807,43.0110249 94.6403165,43.5842749 94.6403165,44.2911772 L94.6403165,51.4397547 C94.6403165,53.9564177 95.6840456,55.0674589 98.0269905,55.0674589 C100.391264,55.0674589 101.434993,53.9564177 101.434993,51.4397547 L101.434993,44.2911772 C101.434993,43.5842749 102.006775,43.0110249 102.71288,43.0110249" id="Fill-18" fill="#000000"></path>
                <path d="M111.517144,49.8819331 C112.986533,49.8819331 114.286202,49.5409834 114.286202,47.6407574 C114.286202,45.7214382 112.986533,45.4014001 111.517144,45.4014001 L109.099776,45.4014001 C108.87061,45.4014001 108.684554,45.5873314 108.684554,45.8173587 L108.684554,49.4659745 C108.684554,49.6955473 108.87061,49.8819331 109.099776,49.8819331 L111.517144,49.8819331 Z M115.045855,57.2428086 C114.62428,57.2428086 114.229932,57.0332382 113.99305,56.6831966 L111.108728,52.4117794 C111.031129,52.2972203 110.902705,52.2290304 110.764297,52.2290304 L109.099776,52.2290304 C108.87061,52.2290304 108.684554,52.4149616 108.684554,52.644989 L108.684554,55.9699299 C108.684554,56.6727408 108.115494,57.2428086 107.413473,57.2428086 L107.399405,57.2428086 C106.697384,57.2428086 106.128325,56.6727408 106.128325,55.9699299 L106.128325,44.2844491 C106.128325,43.5811836 106.697384,43.0111158 107.399405,43.0111158 L111.581129,43.0111158 C114.861161,43.0111158 116.841977,44.6117608 116.841977,47.5771135 C116.841977,49.9783082 115.487398,51.1061696 114.21541,51.628959 C113.972176,51.7285163 113.886409,52.0267336 114.035253,52.2435776 L116.094122,55.2493897 C116.672711,56.0940356 116.06871,57.2428086 115.045855,57.2428086 Z" id="Fill-20" fill="#000000"></path>
                <path d="M139.296583,50.9403317 L137.78726,46.9380375 C137.652029,46.579813 137.146955,46.5793584 137.010363,46.9366737 L135.485611,50.9389679 C135.381691,51.2117276 135.582269,51.5035805 135.873606,51.5035805 L138.908134,51.5035805 C139.198563,51.5035805 139.399595,51.2126368 139.296583,50.9403317 M140.117953,53.8293117 L134.683301,53.8293117 C134.510858,53.8293117 134.356114,53.9361426 134.295306,54.0975254 L133.409497,56.4241658 C133.221626,56.9169516 132.749225,57.2428995 132.222369,57.2428995 C131.324762,57.2428995 130.710323,56.3359735 131.041594,55.4999649 L135.676205,43.8140295 C135.868614,43.3294264 136.33693,43.0112068 136.85698,43.0112068 L137.943819,43.0112068 C138.464323,43.0112068 138.932186,43.3294264 139.124595,43.8140295 L143.759206,55.4999649 C144.090476,56.3359735 143.476037,57.2428995 142.57843,57.2428995 C142.05112,57.2428995 141.578719,56.9169516 141.391302,56.4241658 L140.505947,54.0975254 C140.444231,53.9361426 140.289941,53.8293117 140.117953,53.8293117" id="Fill-22" fill="#000000"></path>
                <g id="Group-26" transform="translate(142.491710, 42.743266)">
                    <mask id="mask-4" fill="white">
                        <use xlink:href="#path-3"></use>
                    </mask>
                    <g id="Clip-25"></g>
                    <path d="M7.44333129,8.5260141 L7.44333129,13.2329376 C7.44333129,13.9330209 6.87744861,14.4999065 6.17905771,14.4999065 L6.1513762,14.4999065 C5.4534391,14.4999065 4.88710262,13.9330209 4.88710262,13.2329376 L4.88710262,8.5264687 C4.88710262,8.44191319 4.86214388,8.36008528 4.81404159,8.29053155 L0.668621929,2.25208605 C0.0923019549,1.41198613 0.692673078,0.267759121 1.71053583,0.267759121 C2.13801097,0.267759121 2.5359894,0.483693895 2.76924017,0.841918321 L5.8164753,5.51520144 C5.98029539,5.76750418 6.34877714,5.76704958 6.51214343,5.51429225 L9.53986537,0.844645919 C9.77356993,0.485057694 10.172456,0.267759121 10.6003849,0.267759121 L10.6035615,0.267759121 C11.6205166,0.267759121 12.2213415,1.40971313 11.6468367,2.25026765 L7.51593853,8.29053155 C7.46874383,8.36008528 7.44333129,8.44191319 7.44333129,8.5260141" id="Fill-24" fill="#000000" mask="url(#mask-4)"></path>
                </g>
                <path d="M124.453848,49.8819331 C125.923237,49.8819331 127.222907,49.5409834 127.222907,47.6407574 C127.222907,45.7214382 125.923237,45.4014001 124.453848,45.4014001 L122.036481,45.4014001 C121.80686,45.4014001 121.621258,45.5873314 121.621258,45.8173587 L121.621258,49.4659745 C121.621258,49.6955473 121.80686,49.8819331 122.036481,49.8819331 L124.453848,49.8819331 Z M127.98256,57.2428086 C127.560984,57.2428086 127.166636,57.0332382 126.929755,56.6831966 L124.044978,52.4117794 C123.967833,52.2972203 123.838955,52.2290304 123.701002,52.2290304 L122.036481,52.2290304 C121.80686,52.2290304 121.621258,52.4149616 121.621258,52.644989 L121.621258,55.9699299 C121.621258,56.6727408 121.052199,57.2428086 120.350177,57.2428086 L120.33611,57.2428086 C119.634089,57.2428086 119.065029,56.6727408 119.065029,55.9699299 L119.065029,44.2844491 C119.065029,43.5811836 119.634089,43.0111158 120.33611,43.0111158 L124.517833,43.0111158 C127.797865,43.0111158 129.778228,44.6117608 129.778228,47.5771135 C129.778228,49.9783082 128.424103,51.1061696 127.152115,51.628959 C126.90888,51.7285163 126.823113,52.0267336 126.971958,52.2435776 L129.030373,55.2493897 C129.608962,56.0940356 129.005414,57.2428086 127.98256,57.2428086 Z" id="Fill-27" fill="#000000"></path>
                <path d="M62.9231593,49.8819331 C64.3925484,49.8819331 65.6917642,49.5409834 65.6917642,47.6407574 C65.6917642,45.7214382 64.3925484,45.4014001 62.9231593,45.4014001 L60.505792,45.4014001 C60.2761716,45.4014001 60.0905693,45.5873314 60.0905693,45.8173587 L60.0905693,49.4659745 C60.0905693,49.6955473 60.2761716,49.8819331 60.505792,49.8819331 L62.9231593,49.8819331 Z M66.4518712,57.2428086 C66.0298416,57.2428086 65.6354936,57.0332382 65.3990662,56.6831966 L62.5142898,52.4117794 C62.4371446,52.2972203 62.3082668,52.2290304 62.170313,52.2290304 L60.505792,52.2290304 C60.2761716,52.2290304 60.0905693,52.4149616 60.0905693,52.644989 L60.0905693,55.9699299 C60.0905693,56.6727408 59.5215101,57.2428086 58.8194888,57.2428086 L58.8054212,57.2428086 C58.1033999,57.2428086 57.5343407,56.6727408 57.5343407,55.9699299 L57.5343407,44.2844491 C57.5343407,43.5811836 58.1033999,43.0111158 58.8054212,43.0111158 L62.9871445,43.0111158 C66.2671766,43.0111158 68.2479929,44.6117608 68.2479929,47.5771135 C68.2479929,49.9783082 66.893414,51.1061696 65.6214259,51.628959 C65.3781917,51.7285163 65.2924244,52.0267336 65.4408154,52.2435776 L67.4996845,55.2493897 C68.0787272,56.0940356 67.4747257,57.2428086 66.4518712,57.2428086 Z" id="Fill-29" fill="#000000"></path>
                <path d="M86.6186685,65.7045878 L86.6186685,65.705497 C86.6186685,66.4128538 86.0464327,66.9856492 85.3412349,66.9856492 L82.4755178,66.9856492 C82.2463512,66.9856492 82.0602952,67.172035 82.0602952,67.4016078 L82.0602952,77.3768852 C82.0602952,78.0833329 81.4880594,78.6565829 80.7828615,78.6565829 C80.0767561,78.6565829 79.5045203,78.0833329 79.5045203,77.3768852 L79.5045203,67.4016078 C79.5045203,67.172035 79.318918,66.9856492 79.0892976,66.9856492 L76.2458166,66.9856492 C75.5397112,66.9856492 74.9679291,66.4128538 74.9679291,65.705497 L74.9679291,65.7045878 C74.9679291,64.9976855 75.5397112,64.4248901 76.2458166,64.4248901 L85.3412349,64.4248901 C86.0464327,64.4248901 86.6186685,64.9976855 86.6186685,65.7045878" id="Fill-31" fill="#000000"></path>
                <g id="Group-35" transform="translate(43.564344, 64.109444)">
                    <mask id="mask-6" fill="white">
                        <use xlink:href="#path-5"></use>
                    </mask>
                    <g id="Clip-34"></g>
                    <path d="M19.7886497,1.96496099 L16.0398471,13.669535 C15.8723966,14.1923244 15.3868357,14.5473667 14.838651,14.5473667 L14.0381562,14.5473667 C13.4899716,14.5473667 13.0044106,14.1918698 12.8369602,13.6690804 L10.3383635,5.85769673 C10.215385,5.47265093 9.67173827,5.47219633 9.54739837,5.85678753 L7.03155748,13.6713534 C6.86365323,14.1932336 6.37854611,14.5473667 5.83081523,14.5473667 L5.02805143,14.5473667 C4.47986676,14.5473667 3.99430584,14.1923244 3.82685539,13.669535 L0.0785065791,1.96496099 C-0.182879488,1.14940944 0.424752359,0.315219311 1.27970262,0.315219311 L1.29921582,0.315219311 C1.85466121,0.315219311 2.34476008,0.678898932 2.50631119,1.21123498 L5.04302667,9.56450126 C5.16146723,9.95409305 5.71101329,9.95863905 5.83535319,9.57041105 L8.53316598,1.1912326 C8.70107022,0.668897742 9.18617735,0.315219311 9.73390822,0.315219311 L10.133248,0.315219311 C10.6805251,0.315219311 11.1656323,0.668897742 11.3335365,1.1912326 L14.0331645,9.57495705 C14.1579582,9.96273044 14.7065966,9.95863905 14.825491,9.56950185 L17.3817197,1.20896198 C17.5437246,0.677989733 18.0333696,0.315219311 18.5879074,0.315219311 C19.4428577,0.315219311 20.0500358,1.14940944 19.7886497,1.96496099" id="Fill-33" fill="#000000" mask="url(#mask-6)"></path>
                </g>
                <path d="M71.453058,72.3539696 L69.9432812,68.3516754 C69.8080502,67.9934509 69.3029761,67.9925417 69.1668375,68.3503116 L67.6416316,72.3526058 C67.5381663,72.6253655 67.7387438,72.9172184 68.0296266,72.9172184 L71.0646092,72.9172184 C71.3550382,72.9172184 71.5556157,72.6262747 71.453058,72.3539696 M72.2739736,75.2429496 L66.8393216,75.2429496 C66.6673332,75.2429496 66.512589,75.3497805 66.4513267,75.5107087 L65.5659721,77.8373491 C65.3781009,78.3305895 64.9057,78.6565374 64.3788437,78.6565374 C63.4812367,78.6565374 62.866798,77.7496113 63.1980685,76.9136028 L67.8326794,65.2272128 C68.0250886,64.7430643 68.4929515,64.4248447 69.0134547,64.4248447 L70.1002943,64.4248447 C70.6207975,64.4248447 71.0886604,64.7430643 71.2810696,65.2272128 L75.9156805,76.9136028 C76.2469511,77.7496113 75.6325123,78.6565374 74.7349053,78.6565374 C74.2075952,78.6565374 73.7351943,78.3305895 73.5477769,77.8373491 L72.6624223,75.5107087 C72.6007062,75.3497805 72.4464158,75.2429496 72.2739736,75.2429496" id="Fill-36" fill="#000000"></path>
                <g id="Group-40" transform="translate(88.036280, 64.109444)">
                    <mask id="mask-8" fill="white">
                        <use xlink:href="#path-7"></use>
                    </mask>
                    <g id="Clip-39"></g>
                    <path d="M2.95193814,5.80950918 C2.95193814,6.03953654 3.13799419,6.22546774 3.36716079,6.22546774 L7.78667278,6.22546774 C8.42198614,6.22546774 8.93658996,6.74143821 8.93658996,7.37742294 L8.93658996,7.48470843 C8.93658996,8.12114777 8.42198614,8.63666363 7.78667278,8.63666363 L3.36716079,8.63666363 C3.13799419,8.63666363 2.95193814,8.82304943 2.95193814,9.05307679 L2.95193814,11.8270431 C2.95193814,12.0566159 3.13799419,12.2430017 3.36716079,12.2430017 L8.7028854,12.2430017 C9.33774497,12.2430017 9.85280258,12.7589721 9.85280258,13.3954115 C9.85280258,14.0313962 9.33774497,14.5473667 8.7028854,14.5473667 L1.54562664,14.5473667 C0.910767077,14.5473667 0.395709463,14.0313962 0.395709463,13.3954115 L0.395709463,1.46717451 C0.395709463,0.831189773 0.910767077,0.315219311 1.54562664,0.315219311 L8.7028854,0.315219311 C9.33774497,0.315219311 9.85280258,0.831189773 9.85280258,1.46717451 L9.85280258,1.46808371 C9.85280258,2.10452304 9.33774497,2.62003891 8.7028854,2.62003891 L3.36716079,2.62003891 C3.13799419,2.62003891 2.95193814,2.80642471 2.95193814,3.03599747 L2.95193814,5.80950918 Z" id="Fill-38" fill="#000000" mask="url(#mask-8)"></path>
                </g>
                <path d="M105.455573,71.2956164 C106.924962,71.2956164 108.224178,70.9542122 108.224178,69.0544408 C108.224178,67.1351216 106.924962,66.8146289 105.455573,66.8146289 L103.038206,66.8146289 C102.808586,66.8146289 102.622983,67.0010147 102.622983,67.2310421 L102.622983,70.8796579 C102.622983,71.1092306 102.808586,71.2956164 103.038206,71.2956164 L105.455573,71.2956164 Z M108.983832,78.6564919 C108.562256,78.6564919 108.167908,78.4469216 107.93148,78.0968799 L105.046704,73.8250082 C104.969559,73.7109037 104.840681,73.6422592 104.702727,73.6422592 L103.038206,73.6422592 C102.808586,73.6422592 102.622983,73.828645 102.622983,74.0586723 L102.622983,77.3836133 C102.622983,78.0864241 102.053924,78.6564919 101.351903,78.6564919 L101.337835,78.6564919 C100.635814,78.6564919 100.066755,78.0864241 100.066755,77.3836133 L100.066755,65.6981325 C100.066755,64.994867 100.635814,64.4247992 101.337835,64.4247992 L105.519559,64.4247992 C108.799137,64.4247992 110.779953,66.0249895 110.779953,68.9907968 C110.779953,71.3919915 109.425828,72.5198529 108.15384,73.0426424 C107.910606,73.1421997 107.824838,73.440417 107.973229,73.657261 L110.032099,76.663073 C110.610688,77.5077189 110.00714,78.6564919 108.983832,78.6564919 Z" id="Fill-41" fill="#000000"></path>
            </g>
        </g>
    </g>
</svg>