<svg id="ec184cc5-5c0f-4260-889f-5c19044798b8" data-name="Layer 1" xmlns="http://www.w3.org/2000/svg" xmlns:xlink="http://www.w3.org/1999/xlink" width="960" height="465" viewBox="0 0 960 465">
  <defs>
    <clipPath id="fd1611a4-ae1d-4229-843c-1e63ff040af1">
      <polygon points="595.02 253.24 587.02 234.62 566.16 236.28 565.87 240.98 564.61 247.16 551.46 350.25 562.9 350.25 578.67 273.44 588.54 350.25 598.65 350.25 595.02 253.24" style="fill: none"/>
    </clipPath>
  </defs>
  <title>imageUploadError_hotSpot</title>
  <path d="M422.56,337.31c-3.86-3.78-11.59-3.78-15.46,0s-11.59,3.78-15.46,0-11.59-3.78-15.46,0-11.59,3.78-15.46,0" style="fill: none;stroke: #101111;stroke-miterlimit: 10;stroke-width: 0.6471274495124817px"/>
  <path d="M422.56,328.44c-3.86-3.78-11.59-3.78-15.46,0s-11.59,3.78-15.46,0-11.59-3.78-15.46,0-11.59,3.78-15.46,0" style="fill: none;stroke: #101111;stroke-miterlimit: 10;stroke-width: 0.6471274495124817px"/>
  <polyline points="558.78 359.44 561.52 348.95 554.98 348.95 553.68 359.44" style="fill: #f9a575"/>
  <polyline points="596.24 359.44 596.82 348.95 590.28 348.95 592.32 359.44" style="fill: #f9a575"/>
  <circle cx="581.27" cy="166.98" r="5.63" style="fill: #14191a"/>
  <path d="M567.73,193.22a4.8,4.8,0,0,0-6.19,2.79v0l-5,13.22-2.8,7.49-4.12-3.82-8.94-8.27a1.7,1.7,0,0,0-2.54,2.22l7,10,3.51,5c.58.83,1.15,1.67,1.77,2.47s1.26,1.58,1.89,2.37a3.92,3.92,0,0,0,6.66-.85l.12-.28,5.68-12.93,5.66-12.93.1-.24a4.82,4.82,0,0,0-2.73-6.25Z" style="fill: #f9a575"/>
  <path d="M585.24,190.93s-7.8-.08-10.61,0c0,0-3.46.93-4.89,1.13a9.49,9.49,0,0,1-2.66-.17c-2.92.71-3.76,1.46-4.58,2.92-.44.79-.46,4.09-.46,4.09s-2,6.55-1.86,8.28c.06.92,3.3,5.92,3.35,6.89.4,8.31,2.5,17.82,2.63,22.23L587,234.62l-2.64-12.26Z" style="fill: #fff"/>
  <path d="M584.73,190.9c-3.57,5.19-7.17,16.83-7.17,16.83s2.57,21.14,3,27.65l6.46-.76-2.64-12.26.86-31.43S586.07,191,584.73,190.9Z" style="fill: #6f69b0"/>
  <path d="M568.69,186.94l-.78,4.33c3.63,4.74,8.27.28,8.27.28l-.81-9-8.11.13A20.53,20.53,0,0,1,568.69,186.94Z" style="fill: #f9a575"/>
  <polygon points="568.69 186.94 567.26 182.66 575.37 182.53 575.91 188.37 568.69 186.94" style="fill: #14191a"/>
  <path d="M563.2,173.65a6.75,6.75,0,0,1,7.31-5.86l3.41.27a6.45,6.45,0,0,1,5.89,6.94l-.41,4.92a6.27,6.27,0,0,1-2.92,4.93,13.82,13.82,0,0,1-5.35,1.92,6.41,6.41,0,0,1-4-.51c-2.71-1.36-3.93-4.45-4-8Z" style="fill: #f9a575"/>
  <path d="M569.2,182.36a3.67,3.67,0,0,1-2.47-.06" style="fill: none;stroke: #39393b;stroke-linecap: round;stroke-miterlimit: 10;stroke-width: 0.41796430945396423px"/>
  <circle cx="570.74" cy="176.83" r="0.61" style="fill: #39393b"/>
  <circle cx="565.26" cy="176.91" r="0.61" style="fill: #39393b"/>
  <path d="M574.18,164.2a10.51,10.51,0,0,1,8,10.27c0,6.58-5.73,10.38-5.73,10.38a4.74,4.74,0,0,1,1.26-5.74,2,2,0,0,0,.58-2.77l-.18-.23c-1.28-1.54-2.62,1.16-2.62,1.16h0c0-1.57-.55-4.65-2.09-4.92-.76-.13-2.95.28-4.94-1.14-4.55-3.23-5.23,3-5.28,2.94s0-.19,0-.51h0C562.32,167.23,567.94,162.74,574.18,164.2Z" style="fill: #14191a"/>
  <path d="M565.47,175a1.86,1.86,0,0,0-1.72.57" style="fill: none;stroke: #39393b;stroke-linecap: round;stroke-miterlimit: 10;stroke-width: 0.35561850666999817px"/>
  <path d="M572.2,175.27a3.54,3.54,0,0,0-2.1-.33" style="fill: none;stroke: #39393b;stroke-linecap: round;stroke-miterlimit: 10;stroke-width: 0.41796430945396423px"/>
  <path d="M540.58,204.55l-3.41-5.24-1.84-1.62-1.22-1.47s-.64.06-.5.65a9.8,9.8,0,0,0,1.6,2.14s-2,3.23-.38,4.86a23.44,23.44,0,0,0,3.15,2.64" style="fill: #f9a575"/>
  <path d="M528.54,198c1.45-1,4.94,1.58,6.61,2.15.32.1,2,5.37,2.22,5.7,1,1.79-4.65-1.24-5-1.36S525.42,200,528.54,198Z" style="fill: #f9a575"/>
  <polygon points="595.02 253.24 587.02 234.62 566.16 236.28 565.87 240.98 564.61 247.16 551.46 350.25 562.9 350.25 578.67 273.44 588.54 350.25 598.65 350.25 595.02 253.24" style="fill: #c1a6cf"/>
  <path d="M594.91,206.41l5,13.2-.31-.6a3.21,3.21,0,0,1,.24.45,1.63,1.63,0,0,1,.11.23.21.21,0,0,0,.07.19,5.46,5.46,0,0,1,.19.66,4.67,4.67,0,0,1,.08.52v.42a8.18,8.18,0,0,1-.06,1.21,9.27,9.27,0,0,1-.33,1.65,17.55,17.55,0,0,1-1,2.61c-.71,1.61-1.48,3.11-2.27,4.59s-1.59,2.94-2.42,4.38-1.67,2.85-2.54,4.28a1.63,1.63,0,0,1-2.24.54,1.64,1.64,0,0,1-.73-1.84h0c.43-1.55.85-3.13,1.25-4.7s.79-3.14,1.14-4.7.67-3.12.89-4.62c.12-.74.18-1.49.26-2.11a6.3,6.3,0,0,0,0-.75h0v.12a.74.74,0,0,0,0,.21,2.36,2.36,0,0,0,.1.38l.05.11a.87.87,0,0,0,.07.17,3.07,3.07,0,0,0,.17.31l-.31-.6-5.19-13.24s-7.28-16.7-3.16-18.4C589.13,189,594.91,206.41,594.91,206.41Z" style="fill: #f9a575"/>
  <polyline points="589.74 236.25 588.39 238.8 589.41 240.46 590.29 239.01" style="fill: #f9a575"/>
  <path d="M578.9,238.36c0,3.17,2.26,5.52,7.54,3.21" style="fill: none;stroke: #101111;stroke-miterlimit: 10;stroke-width: 0.6471274495124817px"/>
  <path d="M592.71,238.08l-2.81,5.6a5.64,5.64,0,0,1-3,3.62l-1.6.79a1.87,1.87,0,0,1-2.43-.72h0a1.88,1.88,0,0,1,.3-2.28l3.23-3.52-1.88.18,4.17-3.39.47-.72Z" style="fill: #f9a575"/>
  <path d="M586.49,243.5s-2.21,2.45-3.83,2.74" style="fill: none;stroke: #101111;stroke-linecap: round;stroke-miterlimit: 10;stroke-width: 0.329285591840744px"/>
  <path d="M587,244.89s-2.35,2.41-4,2.7" style="fill: none;stroke: #101111;stroke-linecap: round;stroke-miterlimit: 10;stroke-width: 0.329285591840744px"/>
  <path d="M587.87,245.67a22.26,22.26,0,0,1-2.53,2.42" style="fill: none;stroke: #101111;stroke-linecap: round;stroke-miterlimit: 10;stroke-width: 0.329285591840744px"/>
  <polyline points="518.79 190.17 528.92 160.93 539.06 190.17" style="fill: #ede2f0"/>
  <path d="M518.79,190.17h20.27V356.83A10.14,10.14,0,0,1,529,367h0a10.14,10.14,0,0,1-10.14-10.14h0V190.17h0Z" style="fill: #c1a6cf"/>
  <line x1="518.79" y1="198.93" x2="539.06" y2="198.93" style="fill: none;stroke: #101111;stroke-miterlimit: 10;stroke-width: 0.6471274495124817px"/>
  <line x1="528.4" y1="198.93" x2="528.4" y2="352.77" style="fill: none;stroke: #101111;stroke-miterlimit: 10;stroke-width: 0.6471274495124817px"/>
  <line x1="518.79" y1="352.77" x2="539.06" y2="352.77" style="fill: none;stroke: #101111;stroke-miterlimit: 10;stroke-width: 0.6471274495124817px"/>
  <polyline points="558.78 359.44 559.78 366.97 557.25 366.97 555.13 366.97 540.83 366.97 540.83 365.38 552.52 359.34" style="fill: #14191a"/>
  <polyline points="597.32 359.44 600.91 365.64 600.91 366.97 598.38 366.97 593.67 366.97 589.72 366.97 589.72 365.38 591.06 359.34" style="fill: #14191a"/>
  <polygon points="531.1 167.19 528.92 160.93 526.75 167.19 531.1 167.19" style="fill: #101111"/>
  <path d="M446.72,169.38V292.92a14.39,14.39,0,0,1-14.39,14.39H344.62a15.14,15.14,0,0,0,15-13.53v-125a7.84,7.84,0,0,1,7.83-7.85h.08l71.36.6A7.85,7.85,0,0,1,446.72,169.38Z" style="fill: #c1a6cf"/>
  <path d="M416.46,292.18h-87a15.12,15.12,0,0,0,15.11,15.13h87a15.12,15.12,0,0,1-15.13-15.11Z" style="fill: #6f69b0"/>
  <path d="M411.4,218a4.62,4.62,0,1,0-4.61-4.63h0a4.6,4.6,0,0,0,4.6,4.62Z" style="fill: #fff"/>
  <path d="M409.79,224.66l-7.21,7.9-9.69-14.12a.41.41,0,0,0-.31-.14.38.38,0,0,0-.3.15l-12.92,17.34H418.7l-8.38-11.11A.4.4,0,0,0,409.79,224.66Z" style="fill: #fff"/>
  <ellipse cx="388.11" cy="365.18" rx="58.62" ry="4.4" style="fill: #14191a"/>
  <g style="clip-path: url(#fd1611a4-ae1d-4229-843c-1e63ff040af1)">
    <g>
      <path d="M615.66,304.34s-22.76-12.47-27.6-6.12,10.56,12.78,9.25,15.69c-1,2.17-16.62-4.71-19.28.29s26.79,30.44,26.79,30.44" style="fill: none;stroke: #fff;stroke-miterlimit: 10;stroke-width: 0.780467689037323px"/>
      <path d="M544.26,265.37s21,15.22,26.63,9.53-8.88-14-7.22-16.72c1.25-2,15.9,6.76,19.16,2.12s-14.58-24.05-14.58-24.05" style="fill: none;stroke: #fff;stroke-miterlimit: 10;stroke-width: 0.780467689037323px"/>
      <path d="M529.58,338.38s24.44,8.75,28.23,1.73-12.44-11-11.6-14.05c.63-2.3,17.15,2.05,19-3.31s-20.71-19-20.71-19" style="fill: none;stroke: #fff;stroke-miterlimit: 10;stroke-width: 0.780467689037323px"/>
    </g>
  </g>
  <line x1="577.56" y1="263.57" x2="588.54" y2="350.25" style="fill: none;stroke: #101111;stroke-miterlimit: 10;stroke-width: 0.6471274495124817px"/>
  <path d="M299,98.94h4.44v22.15H299Z" style="fill: #14191a"/>
  <path d="M332.39,111.38c0-2.79-1.56-4.25-3.9-4.25s-3.94,1.46-3.94,4.25v9.71h-4.44v-9.71c0-2.79-1.56-4.25-3.9-4.25s-4,1.46-4,4.25v9.71H307.8V103.51h4.44v2.13a6.4,6.4,0,0,1,5.17-2.38,6.72,6.72,0,0,1,6.19,3.36,7,7,0,0,1,6-3.36c4.22,0,7.2,2.66,7.2,7.52v10.31h-4.44Z" style="fill: #14191a"/>
  <path d="M347.94,103.23a6.92,6.92,0,0,1,5.8,2.79v-2.51h4.48v17.58h-4.48v-2.57a6.93,6.93,0,0,1-5.84,2.86c-4.44,0-8-3.65-8-9.14S343.46,103.23,347.94,103.23Zm1.14,3.9c-2.38,0-4.64,1.78-4.64,5.11s2.26,5.23,4.64,5.23,4.66-1.84,4.66-5.17S351.52,107.13,349.08,107.13Z" style="fill: #14191a"/>
  <path d="M369.45,103.23a6.85,6.85,0,0,1,5.8,2.79v-2.51h4.48v17.71c0,4.76-2.92,8.53-8.7,8.53-4.95,0-8.4-2.47-8.85-6.5h4.41c.45,1.59,2.1,2.63,4.32,2.63,2.44,0,4.34-1.39,4.34-4.66v-2.73a6.92,6.92,0,0,1-5.8,2.89c-4.48,0-8-3.65-8-9.14S365,103.23,369.45,103.23Zm1.14,3.9c-2.38,0-4.63,1.78-4.63,5.11s2.25,5.23,4.63,5.23,4.66-1.84,4.66-5.17S373,107.13,370.59,107.13Z" style="fill: #14191a"/>
  <path d="M391.75,121.38c-5.11,0-8.82-3.56-8.82-9.08s3.62-9.07,8.82-9.07a8.25,8.25,0,0,1,8.67,7.81,6.46,6.46,0,0,1,0,.88,9.85,9.85,0,0,1-.13,1.71H387.44a4.11,4.11,0,0,0,4.15,4.07h.07a3.63,3.63,0,0,0,3.52-2.13H400A8.16,8.16,0,0,1,391.75,121.38Zm-4.28-10.73h8.35a3.91,3.91,0,0,0-4-3.78h-.15A4.08,4.08,0,0,0,387.47,110.65Z" style="fill: #14191a"/>
  <path d="M411.68,107.16h-2v-3.65h2v-.89c0-4.31,2.44-6.31,7.39-6.18v3.74c-2.16-.06-2.89.63-2.89,2.6v.73h3.08v3.65h-3.08v13.93h-4.5Z" style="fill: #14191a"/>
  <path d="M429,103.23a6.92,6.92,0,0,1,5.8,2.79v-2.51h4.48v17.58H434.8v-2.57a6.93,6.93,0,0,1-5.8,2.86c-4.44,0-8-3.65-8-9.14S424.56,103.23,429,103.23Zm1.14,3.9c-2.38,0-4.64,1.78-4.64,5.11s2.26,5.23,4.64,5.23,4.66-1.84,4.66-5.17-2.18-5.17-4.62-5.17Z" style="fill: #14191a"/>
  <path d="M443.19,98.82a2.73,2.73,0,1,1,2.86,2.6h-.14a2.61,2.61,0,0,1-2.72-2.5Zm.47,4.69h4.44v17.58h-4.44Z" style="fill: #14191a"/>
  <path d="M452.48,97.61h4.45v23.48h-4.45Z" style="fill: #14191a"/>
  <path d="M469,121.38c-5.11,0-8.82-3.56-8.82-9.08s3.62-9.07,8.82-9.07a8.25,8.25,0,0,1,8.67,7.81,6.46,6.46,0,0,1,0,.88,10.94,10.94,0,0,1-.13,1.71H464.67a4.11,4.11,0,0,0,4.15,4.07h.07a3.63,3.63,0,0,0,3.52-2.13h4.79A8.17,8.17,0,0,1,469,121.38Zm-4.3-10.73H473a3.89,3.89,0,0,0-4-3.78h-.18A4.08,4.08,0,0,0,464.7,110.65Z" style="fill: #14191a"/>
  <path d="M487.8,103.23a7.19,7.19,0,0,1,5.74,2.77V97.61h4.51v23.48h-4.51v-2.6a6.63,6.63,0,0,1-5.77,2.89c-4.48,0-8-3.65-8-9.14S483.29,103.23,487.8,103.23Zm1.11,3.9c-2.38,0-4.63,1.78-4.63,5.11s2.25,5.23,4.63,5.23,4.66-1.84,4.66-5.17-2.22-5.17-4.66-5.17Z" style="fill: #14191a"/>
  <path d="M510.64,107.16h-2.09v-3.65h2.09V99.16h4.48v4.35h3.93v3.65h-3.93v8.51c0,1.17.47,1.68,1.87,1.68h2.06v3.74h-2.79c-3.37,0-5.62-1.43-5.62-5.46Z" style="fill: #14191a"/>
  <path d="M530.06,121.38c-5.08,0-8.92-3.56-8.92-9.08a9,9,0,1,1,18.09,0,8.79,8.79,0,0,1-8.49,9.08C530.52,121.39,530.29,121.39,530.06,121.38Zm0-3.87c2.35,0,4.6-1.72,4.6-5.21s-2.19-5.2-4.54-5.2-4.47,1.68-4.47,5.2S527.68,117.51,530.06,117.51Z" style="fill: #14191a"/>
  <path d="M566.65,121.09h-4.48v-2.22a6.48,6.48,0,0,1-5.23,2.44c-4.1,0-7.05-2.66-7.05-7.49V103.51h4.44v9.68c0,2.82,1.56,4.35,3.91,4.35s3.93-1.53,3.93-4.35v-9.68h4.48Z" style="fill: #14191a"/>
  <path d="M581.27,103.23c4.51,0,8,3.52,8,9s-3.52,9.14-8,9.14a7.15,7.15,0,0,1-5.8-2.8v10.9H571v-26h4.45V106A7,7,0,0,1,581.27,103.23Zm-1.17,3.9c-2.38,0-4.63,1.84-4.63,5.17s2.25,5.17,4.63,5.17,4.66-1.9,4.66-5.23-2.25-5.11-4.66-5.11Z" style="fill: #14191a"/>
  <path d="M592.54,97.61H597v23.48h-4.44Z" style="fill: #14191a"/>
  <path d="M609.16,121.38c-5.08,0-8.92-3.56-8.92-9.08a9,9,0,1,1,18.09,0,8.79,8.79,0,0,1-8.49,9.08C609.62,121.39,609.39,121.39,609.16,121.38Zm0-3.87c2.35,0,4.6-1.72,4.6-5.21s-2.19-5.2-4.53-5.2-4.48,1.68-4.48,5.2S606.78,117.51,609.16,117.51Z" style="fill: #14191a"/>
  <path d="M628.48,103.23a7,7,0,0,1,5.81,2.77v-2.49h4.48v17.58h-4.48v-2.57a7,7,0,0,1-5.84,2.86c-4.44,0-8-3.65-8-9.14S624,103.23,628.48,103.23Zm1.15,3.9c-2.38,0-4.64,1.78-4.64,5.11s2.26,5.23,4.64,5.23,4.66-1.84,4.66-5.17S632.07,107.13,629.63,107.13Z" style="fill: #14191a"/>
  <path d="M650,103.23a7.15,7.15,0,0,1,5.77,2.77V97.61h4.51v23.48h-4.51v-2.6a6.63,6.63,0,0,1-5.77,2.89c-4.48,0-8-3.65-8-9.14S645.52,103.23,650,103.23Zm1.11,3.9c-2.38,0-4.63,1.78-4.63,5.11s2.25,5.23,4.63,5.23,4.66-1.84,4.66-5.17-2.19-5.17-4.63-5.17Z" style="fill: #14191a"/>
</svg>
