<?xml version="1.0" encoding="UTF-8"?>
<svg width="25px" height="25px" viewBox="0 0 25 25" version="1.1" xmlns="http://www.w3.org/2000/svg" xmlns:xlink="http://www.w3.org/1999/xlink">
    <!-- Generator: Sketch 59 (86127) - https://sketch.com -->
    <title>Question</title>
    <desc>Created with Sketch.</desc>
    <g id="Page-1" stroke="none" stroke-width="1" fill="none" fill-rule="evenodd">
        <g id="Settings-" transform="translate(-204.000000, -492.000000)">
            <g id="Question" transform="translate(204.000000, 492.000000)">
                <circle id="Oval" fill="#C0D4FE" cx="12.288" cy="12.288" r="12.288"></circle>
                <path d="M12.799488,14.782464 L12.799488,14.681088 C12.799488,13.988352 13.120512,13.464576 13.711872,13.042176 L14.404608,12.552192 C15.401472,11.84256 16.077312,10.896384 16.077312,9.5616 C16.077312,7.855104 14.708736,6.199296 12.089856,6.199296 C9.589248,6.199296 8.220672,7.95648 8.220672,9.781248 C8.220672,10.034688 8.237568,10.305024 8.305152,10.541568 L10.434048,10.626048 C10.38336,10.473984 10.366464,10.288128 10.366464,10.085376 C10.366464,9.1392 10.89024,8.176128 12.089856,8.176128 C13.221888,8.176128 13.779456,8.919552 13.779456,9.696768 C13.779456,10.203648 13.559808,10.65984 13.052928,11.031552 L12.24192,11.639808 C11.278848,12.366336 10.907136,13.19424 10.907136,14.089728 C10.907136,14.343168 10.940928,14.562816 10.97472,14.782464 L12.799488,14.782464 Z M10.586112,17.232384 C10.586112,16.48896 11.177472,15.880704 11.920896,15.880704 C12.66432,15.880704 13.272576,16.48896 13.272576,17.232384 C13.272576,17.975808 12.66432,18.567168 11.920896,18.567168 C11.177472,18.567168 10.586112,17.975808 10.586112,17.232384 Z" id="?" fill="#FFFFFF" fill-rule="nonzero"></path>
            </g>
        </g>
    </g>
</svg>