<svg width="37" height="40" viewBox="0 0 37 40" fill="none" xmlns="http://www.w3.org/2000/svg">
<path d="M25.6757 21.6217C25.6757 25.6758 22.3423 28.919 18.3784 28.919C16.4865 28.919 14.6847 28.1983 13.4234 26.937C15.2252 32.5226 19.7297 36.937 25.4054 38.4686C32.0721 35.6758 36.7567 29.1893 36.7567 21.5316H25.6757V21.6217Z" fill="#00D9D3"/>
<path d="M22.4324 0V3.69369C21.0811 3.42342 19.7297 3.24324 18.3784 3.24324C8.1982 3.24324 0 11.4414 0 21.6216C0 31.7117 8.1982 40 18.3784 40C20 40 21.6216 39.8198 23.1532 39.3694C16.3964 36.6667 11.5315 30.2703 11.1712 22.6126C11.0811 22.2523 11.0811 21.982 11.0811 21.6216C11.0811 17.5676 14.4144 14.3243 18.3784 14.3243H22.4324H34.5946H35.2252H36.7568C36.6667 6.3964 30.2703 0 22.4324 0ZM29.2793 11.6216C27.6577 11.6216 26.3964 10.2703 26.3964 8.73874C26.3964 7.20721 27.7478 5.85586 29.2793 5.85586C30.9009 5.85586 32.1622 7.20721 32.1622 8.73874C32.1622 10.2703 30.9009 11.6216 29.2793 11.6216Z" fill="#00D9D3"/>
<path d="M29.4594 8.64865C29.4594 9.27928 30 9.81982 30.6306 9.81982C31.2612 9.81982 31.8018 9.27928 31.8018 8.64865C31.8018 8.01802 31.2612 7.47748 30.6306 7.47748C30 7.56757 29.4594 8.01802 29.4594 8.64865Z" fill="#00D9D3"/>
</svg>
