<svg id="Layer_1" data-name="Layer 1" xmlns="http://www.w3.org/2000/svg" viewBox="0 0 800 600"><defs><style>.cls-1,.cls-14,.cls-3,.cls-8,.cls-9{fill:none;}.cls-1,.cls-14{stroke:#262c31;}.cls-1,.cls-14,.cls-3,.cls-9{stroke-miterlimit:10;}.cls-2{fill:#62b0b2;}.cls-3{stroke:#c5dbe8;}.cls-4{fill:#262c31;}.cls-5{fill:#b9e6f9;}.cls-6{fill:#f9af85;}.cls-7{fill:#38383a;}.cls-8,.cls-9{stroke:#38383a;stroke-linecap:round;}.cls-8{stroke-linejoin:round;}.cls-10{fill:#171a1c;}.cls-11{fill:#fff;}.cls-12{fill:#ffb185;}.cls-13{fill:#ff0566;}.cls-14{stroke-dasharray:1.88 3.79;}.cls-15{fill:#7fced3;}</style></defs><title>Media</title><path class="cls-1" d="M607,389.71s-32.53,23.55-20.59,93.94"/><path class="cls-2" d="M601.44,351.21c-26.37,16.41,1.41,39.06,3.24,41,.9,2.48,9,37.4,35.35,21l.22-.15a173.92,173.92,0,0,1-15.52-8c-8.34-5-7.58-10.87.41-4.55,5.71,4.51,14.9,7.85,19.7,9.4a58.23,58.23,0,0,0,12.1-12.32c-27.26-5.92-26.94-12.45-18.92-9.1,5.51,2.3,15.37,4.27,21.39,5.35a48.42,48.42,0,0,0,4.7-10.42c-19.61-.79-20.65-7.07-14.42-5.32,4.14,1.16,11,1.28,15.49,1.22a40.3,40.3,0,0,0,.77-11.46c-11.47,2.7-14.78-2.58-10.44-2.16,3.08.29,7.39-1,9.91-1.86a23.33,23.33,0,0,1-.94-8.84,21.74,21.74,0,0,1-7.53-4.75c-1.9,1.88-4.94,5.18-6,8.07-1.54,4.08-4.82-1.21,2.65-10.32a40.31,40.31,0,0,0-10.63-4.35c-2,4-4.94,10.2-5.72,14.43-1.18,6.36-6.35,2.67,1.57-15.28a48.69,48.69,0,0,0-11.42-.37c-1.69,5.88-4.26,15.6-4.62,21.55-.53,8.67-6.54,6.08.16-21a58.57,58.57,0,0,0-16.39,5.43c-.72,5-1.77,14.71-.24,21.81,2.15,10-3.42,8.07-4.26-1.63a173.82,173.82,0,0,1-.36-17.46ZM637.55,382c-3.12-1.13-4.14-2.77-2.85-3.71s6.41.83,5.81,2.67S637.55,382,637.55,382Zm-17.09,6.52c1-1.23,8.32,1.58,8.67,4.12s-3,1.26-3,1.26C621.63,392.08,619.42,389.72,620.46,388.5Zm-8.9,4c.72-.32,3,1.09,2.53,1.92s-1.55.19-1.55.19C611.15,393.72,610.83,392.81,611.56,392.5Zm31.64-24.93c1-.71,4.87.63,4.42,2s-2.26.79-2.26.79C643,369.53,642.22,368.28,643.2,367.57Zm-13.84,2.7c-1.54.39-2.36-1.92-1.55-5.73,0,0,.68-2.84,2.61-1.84S630.91,369.87,629.36,370.27Zm-17.8-.53s.65-5.15,3.64-3,1.65,13.36-.6,13.84S610.83,376.66,611.56,369.74Z"/><line class="cls-3" x1="656.7" y1="229.37" x2="711.17" y2="229.37"/><polyline class="cls-3" points="711.17 206.07 656.7 206.07 656.7 182.76 711.17 182.76"/><line class="cls-3" x1="683.93" y1="229.37" x2="683.93" y2="206.07"/><rect class="cls-3" x="629.46" y="206.07" width="54.47" height="23.3" transform="translate(1313.39 435.44) rotate(180)"/><polyline class="cls-3" points="711.17 159.46 656.7 159.46 656.7 136.16"/><rect class="cls-3" x="602.22" y="136.16" width="54.47" height="23.3" transform="translate(1258.92 295.62) rotate(-180)"/><line class="cls-3" x1="683.93" y1="182.77" x2="683.93" y2="159.46"/><rect class="cls-3" x="629.46" y="159.46" width="54.47" height="23.3" transform="translate(1313.39 342.23) rotate(180)"/><line class="cls-3" x1="656.7" y1="112.86" x2="602.22" y2="112.86"/><line class="cls-3" x1="602.22" y1="112.86" x2="547.75" y2="112.86"/><polyline class="cls-3" points="683.93 136.16 629.46 136.16 629.46 112.86 683.93 112.86"/><rect class="cls-3" x="574.99" y="112.86" width="54.47" height="23.3" transform="translate(1204.44 249.02) rotate(-180)"/><line class="cls-3" x1="574.99" y1="112.86" x2="574.99" y2="136.16"/><path class="cls-4" d="M158.68,99.71c-10,0-20.45,7.37-22.51,25.84-2.47,22.1,1.88,29.69-11.81,35.18s-5.09,37-5.09,37L181,180.3l-3.64-14.21C181,156.79,199,99.71,158.68,99.71Z"/><path class="cls-5" d="M121.34,172c6.6-9.88,21-8.4,21-8.4l-13.05,34-5.85,29.05L130.82,256l-9.95,14.77s-13.49-35.59-12.22-47.12C109.61,214.91,116.24,179.63,121.34,172Z"/><path class="cls-5" d="M197.09,172c-6.6-9.88-21-8.4-21-8.4l13,34,22.22,25.26a9.29,9.29,0,0,0,15.1-1.64l24.38-44-9.49-6.64L218.5,205.78S202.19,179.63,197.09,172Z"/><polygon class="cls-5" points="134.1 252.55 185.59 252.55 188.93 196.45 190.11 169.28 176.82 163.59 138.91 163.59 127.4 175.92 129.29 197.53 134.16 241.09 134.1 252.55"/><path class="cls-6" d="M170.16,161.7c-6.56-5.76-4.56-15-4.56-15,0-6.38-.95-9.06-6.71-10.05h-.15c-5.76,1-6.7,3.67-6.7,10.05,0,0,2,9.2-4.57,15-4.81,4.23,4.61,11.48,11.27,12h.15C165.55,173.18,175,165.93,170.16,161.7Z"/><polyline class="cls-7" points="153.72 150.82 152.38 138.29 169.25 138.29 167.01 157.53"/><path class="cls-8" d="M154.5,126.19a6.35,6.35,0,0,0-5.52,1"/><path class="cls-6" d="M159.46,152.06h0c-5.75,0-14-6.95-14-14.66V124.84a14,14,0,0,1,14-14h0a14,14,0,0,1,14,14V137.4C173.43,145.11,165.12,152.06,159.46,152.06Z"/><path class="cls-6" d="M146.82,131.1s-2.18-2.12-4,.71c-2.06,3.28,4,9,4,9"/><path class="cls-6" d="M172.11,140.81s6-5.72,4-9c-1.79-2.83-4-.71-4-.71"/><circle class="cls-7" cx="166.48" cy="130.83" r="1.35"/><circle class="cls-7" cx="152.36" cy="130.83" r="1.35"/><path class="cls-9" d="M162.46,143a8.39,8.39,0,0,1-7.72-.66"/><path class="cls-8" d="M164.22,126.35a6.4,6.4,0,0,1,5.58.67"/><path class="cls-4" d="M169.8,113.43S161.13,130.87,144,127c0,0-1.53-15.4,10.54-17.22S169.8,113.43,169.8,113.43Z"/><path class="cls-4" d="M169.17,113.43s-2.7,9.79,4.25,17L177,118.5"/><path class="cls-10" d="M185.59,252.55h0l1.18-19.8c-6.9-8.26-4.66-35.43-4.66-35.43l3.56-32.89s-4.36-1.89-6.89-.92l-3.54,28.59h-32l-6-28.46c-4.86,0-6.73,1.45-6.73,1.45l5,31.48s2.95,24.35-2.45,35.35l1,20.63L133.68,266C116.61,332.19,143,474.36,143,474.36h18.14l2.22-168.49,32.38,168.49h17.47S213,367.42,189.13,277.91A105.45,105.45,0,0,1,185.59,252.55Z"/><polygon class="cls-10" points="234.48 496.13 234.48 493.23 211.4 482.2 209.66 463.25 197.53 463.25 200.83 496.13 204.5 496.13 208.37 496.13 234.48 496.13"/><polygon class="cls-10" points="124.75 496.13 124.75 493.23 146.1 482.2 147.04 463.25 158.97 463.25 156.48 496.13 154.73 496.13 150.86 496.13 124.75 496.13"/><polyline class="cls-6" points="135.59 264.24 129.02 258.67 123.44 266.96 133.78 278.64"/><path class="cls-1" d="M232.25,173.52H516.79A16.25,16.25,0,0,1,533,189.77V401.71a17.43,17.43,0,0,1-17.43,17.43H233.43A17.43,17.43,0,0,1,216,401.71V189.77A16.25,16.25,0,0,1,232.25,173.52Z"/><path class="cls-1" d="M232.25,173.52H516.93a16.25,16.25,0,0,1,16.25,16.25v17.81a0,0,0,0,1,0,0H216a0,0,0,0,1,0,0V189.77A16.25,16.25,0,0,1,232.25,173.52Z"/><path class="cls-4" d="M232.25,173.52H516.93a16.25,16.25,0,0,1,16.25,16.25v17.81a0,0,0,0,1,0,0H216a0,0,0,0,1,0,0V189.77A16.25,16.25,0,0,1,232.25,173.52Z"/><circle class="cls-11" cx="238.4" cy="190.8" r="4.42"/><circle class="cls-11" cx="251.02" cy="190.8" r="4.42"/><circle class="cls-11" cx="263.65" cy="190.8" r="4.42"/><path class="cls-12" d="M250.57,169.2c3.82.94,3.55,4.64,1.29,7.14-1.18,1.3-3.05,2.22-6,1.85a6.22,6.22,0,0,1-5.69-6.93C240.43,168.34,246.54,168.21,250.57,169.2Z"/><path class="cls-1" d="M243.15,172.73a7.7,7.7,0,0,1,0,4.52"/><path class="cls-1" d="M246.75,174a7.7,7.7,0,0,1,0,4.52"/><path class="cls-1" d="M250,173.25a7.63,7.63,0,0,1,0,4.53"/><path class="cls-1" d="M298.38,299.3A36.65,36.65,0,1,1,335,262.66"/><path class="cls-1" d="M480.08,359.71a36.65,36.65,0,1,1-73.3,0"/><polygon class="cls-13" points="292.17 248.42 292.17 276.52 310.31 262.47 292.17 248.42"/><path class="cls-13" d="M432.26,357.2a2.3,2.3,0,0,0-2.45-1.9A1.91,1.91,0,0,0,427.7,357c0,.74.47,1.33,1.46,1.52l1.88.36c2.45.48,3.77,2.07,3.77,4,0,2.07-1.73,4.16-4.87,4.16-3.57,0-5.15-2.3-5.36-4.22l2.44-.65a2.7,2.7,0,0,0,2.94,2.53c1.41,0,2.19-.7,2.19-1.65,0-.78-.59-1.39-1.64-1.6l-1.88-.38c-2.15-.44-3.53-1.82-3.53-3.86a4.45,4.45,0,0,1,4.69-4.21c3.27,0,4.52,2,4.83,3.49Z"/><path class="cls-13" d="M445.52,353.27h2.77l-5,13.47h-2.7l-5-13.47h2.87l3.52,10Z"/><path class="cls-13" d="M459.62,366.74l-.17-1.54a4.65,4.65,0,0,1-4,1.83,6.64,6.64,0,0,1-6.73-7,6.78,6.78,0,0,1,6.9-7,6.07,6.07,0,0,1,6.15,4.14l-2.51.89a3.58,3.58,0,0,0-3.64-2.58,4.2,4.2,0,0,0-4.24,4.58c0,3,2,4.61,4.26,4.61a3.39,3.39,0,0,0,3.61-2.62H455v-2.28h6.73v7Z"/><path class="cls-14" d="M443.43,323.06a36.65,36.65,0,0,1,36.65,36.65"/><path class="cls-13" d="M390.6,302.43a7.43,7.43,0,1,0-7.42-7.42A7.43,7.43,0,0,0,390.6,302.43Z"/><path class="cls-13" d="M388,313.18l-11.6,12.71-15.62-22.73a.63.63,0,0,0-1,0L339,331.1h63.34l-13.49-17.89A.62.62,0,0,0,388,313.18Z"/><rect class="cls-1" x="334.5" y="281.14" width="72.23" height="56.82"/><path class="cls-1" d="M632.51,396s-51.65,12.59-46.82,84.5"/><path class="cls-15" d="M639.5,358.58c-30.43,6.16-12.33,37.1-11.28,39.52,0,2.64-4.64,38.19,25.79,32l.27-.06c-3.43-3.47-8.24-8.52-11.75-12.94-6-7.63-3.3-12.83,2-4.12,3.77,6.22,11.22,12.57,15.18,15.69a58,58,0,0,0,15.63-7.31c-23.47-15.07-20.88-21.08-14.54-15.14,4.35,4.08,12.9,9.38,18.17,12.49a48.64,48.64,0,0,0,8-8.12c-18.11-7.6-16.88-13.84-11.66-10,3.48,2.54,9.88,5.06,14.09,6.56a40.47,40.47,0,0,0,4.73-10.46c-11.7-1.49-12.95-7.59-9-5.68,2.77,1.35,7.26,1.66,9.92,1.72a23.35,23.35,0,0,1,2.21-8.61,22,22,0,0,1-5.4-7.08c-2.43,1.09-6.44,3.13-8.46,5.45-2.87,3.29-4.1-2.82,6.08-8.74a39.85,39.85,0,0,0-8.43-7.79c-3.29,3-8.2,7.83-10.41,11.52-3.32,5.54-6.88.28,6.82-13.76a47.91,47.91,0,0,0-10.57-4.34c-3.64,4.92-9.44,13.12-11.86,18.57-3.53,7.94-8.25,3.42,7.48-19.6a58.43,58.43,0,0,0-17.25-.64c-2.43,4.43-6.8,13.16-7.85,20.35-1.47,10.08-6,6.36-3.43-3,1.51-5.43,4-11.95,5.77-16.48ZM662.58,400c-2.52-2.15-2.9-4-1.37-4.47s5.72,3,4.52,4.53S662.58,400,662.58,400Zm-18.29.14c1.4-.79,7.25,4.39,6.69,6.89s-3.27.12-3.27.12C644.14,403.94,642.9,401,644.29,400.17Zm-9.74.63c.8,0,2.45,2.09,1.7,2.69s-1.52-.37-1.52-.37C633.74,401.8,633.76,400.84,634.55,400.8Zm38.36-12.29c1.17-.33,4.34,2.29,3.43,3.44s-2.38,0-2.38,0C672,390.27,671.75,388.83,672.91,388.51ZM659,386.2c-1.59-.17-1.55-2.63.55-5.91,0,0,1.63-2.43,3.08-.82S660.6,386.37,659,386.2Zm-16.5-6.72s2.41-4.6,4.45-1.53-3.11,13.09-5.39,12.76S639.41,385.71,642.51,379.48Z"/><path class="cls-10" d="M568.23,459.35h37.31a0,0,0,0,1,0,0v18.12a18.65,18.65,0,0,1-18.65,18.65h0a18.65,18.65,0,0,1-18.65-18.65V459.35a0,0,0,0,1,0,0Z"/><path class="cls-15" d="M525.8,402.18s49.88-2.42,48.67,35.94C574.47,438.12,542,451.79,525.8,402.18Z"/><path class="cls-9" d="M584.87,463.25s2.31-27.33-49.87-54.65"/><polyline class="cls-9" points="538.99 420 550.51 418.19 549.39 410.07"/><polyline class="cls-9" points="551.27 429.84 565.61 429.4 562.37 417.95"/><circle class="cls-15" cx="139.86" cy="196.75" r="1.53"/><circle class="cls-15" cx="177.86" cy="196.75" r="1.53"/></svg>