<?xml version="1.0" encoding="utf-8"?>
<!-- Generator: Adobe Illustrator 25.2.0, SVG Export Plug-In . SVG Version: 6.00 Build 0)  -->
<svg version="1.1" id="Layer_1" xmlns="http://www.w3.org/2000/svg" xmlns:xlink="http://www.w3.org/1999/xlink" x="0px" y="0px"
	 viewBox="0 0 21 20" style="enable-background:new 0 0 21 20;" xml:space="preserve">
<style type="text/css">
	.st0{fill:none;stroke:#010101;stroke-miterlimit:10;}
</style>
<path class="st0" d="M17.2,2.9H3.8c-1.1,0-2,0.9-2,2v10.2c0,1.1,0.9,2,2,2c0,0,0,0,0,0h13.5c1.1,0,2-0.9,2-2V4.9
	C19.2,3.8,18.3,2.9,17.2,2.9z"/>
<g>
	<path d="M5.7,10.4H5v1.7H3.8V7.4h1.9c1.2,0,1.8,0.7,1.8,1.5C7.5,9.7,6.9,10.4,5.7,10.4z M5.6,9.5c0.5,0,0.7-0.2,0.7-0.6
		S6.1,8.3,5.6,8.3H5v1.2H5.6z"/>
	<path d="M12.8,9.8c0,1.4-1,2.4-2.5,2.4H8.5V7.4h1.8C11.8,7.4,12.8,8.3,12.8,9.8z M10.2,11.2c0.9,0,1.4-0.5,1.4-1.4
		s-0.5-1.4-1.4-1.4H9.7v2.8H10.2z"/>
	<path d="M13.9,7.4H17v0.9h-2v1h1.5v0.9H15v1.9h-1.2V7.4z"/>
</g>
</svg>
