<svg id="Layer_1" data-name="Layer 1" xmlns="http://www.w3.org/2000/svg" viewBox="0 0 67.36 67.36"><title>Portal avatar</title><rect width="67.36" height="67.36" style="fill:#927fff"/><path d="M25.13,49.26c0,.06,0,.12,0,.18,0,3.68,3.85,6.66,8.6,6.66s8.6-3,8.6-6.66c0-.07,0-.13,0-.19a28.92,28.92,0,0,0-17.18,0Z" style="fill:#9794ff"/><rect x="21.6" y="15.28" width="24.16" height="30.04" style="fill:#9794ff"/><path d="M29,38.17h9.31a0,0,0,0,1,0,0V46.3A4.65,4.65,0,0,1,33.68,51h0A4.65,4.65,0,0,1,29,46.3V38.17A0,0,0,0,1,29,38.17Z" style="fill:#9794ff"/><polygon points="38.34 43.17 38.34 38.17 29.03 38.17 29.03 44.68 38.34 43.17" style="fill:#af414e"/><path d="M33.68,14.6h0c-11.44.29-10.75,10.12-10.75,10.12A41.3,41.3,0,0,0,24.2,34.85c.62,2.45,2.46,3.95,4.93,5.33l.45.25a9.05,9.05,0,0,0,4.1,1.12h0a9.05,9.05,0,0,0,4.1-1.12l.45-.25c2.47-1.38,4.31-2.88,4.93-5.33a41.3,41.3,0,0,0,1.27-10.13S45.12,14.89,33.68,14.6Z" style="fill:#c85a64"/><path d="M23.2,28.73h0a2.25,2.25,0,0,0,0,4.5,2.11,2.11,0,0,0,.62-.09C23.51,31.58,23.32,30.05,23.2,28.73Z" style="fill:#af414e"/><path d="M44.23,28.73a41.38,41.38,0,0,1-.67,4.39,2.24,2.24,0,1,0,.67-4.39Z" style="fill:#af414e"/><path d="M41.72,15.81h0c-1.59-1.58-4.09-2.81-8-2.91h0c-3.95.1-6.45,1.33-8,2.91h0c-4.29,3.54-2.31,14.3-2.31,14.3.2-1.29.48-2.76.77-4.16l1-.17h0A5.66,5.66,0,0,1,31,20.44c.93,0,4.45,0,5.38,0a5.66,5.66,0,0,1,5.86,5.34h0l1,.17c.29,1.4.57,2.87.77,4.16C44,30.11,46.25,19.61,41.72,15.81Z" style="fill:#001833"/><circle cx="27.74" cy="33.32" r="1.58" style="fill:#d86f7c"/><circle cx="39.82" cy="33.32" r="1.58" style="fill:#d86f7c"/><ellipse cx="29.69" cy="29.5" rx="0.84" ry="1.21" style="fill:#001833"/><ellipse cx="37.88" cy="29.5" rx="0.84" ry="1.21" style="fill:#001833"/><path d="M31,26.51a3.51,3.51,0,0,0-2.65.3" style="fill:none;stroke:#001833;stroke-linecap:round;stroke-linejoin:round;stroke-width:0.6297172408052261px"/><path d="M36.55,26.51a4.26,4.26,0,0,1,2.66.3" style="fill:none;stroke:#001833;stroke-linecap:round;stroke-linejoin:round;stroke-width:0.6297172408052261px"/><path d="M32.1,35.86a5.74,5.74,0,0,0,3.8-.52" style="fill:none;stroke:#001833;stroke-linecap:round;stroke-linejoin:round;stroke-width:0.6297172408052261px"/><rect x="21.6" y="15.28" width="24.16" height="30.04" style="fill:#fff;opacity:0.3"/><path d="M53.1,53.52A8.7,8.7,0,0,1,49,46.15V24.39a15.26,15.26,0,0,0-30.52,0V46.17a8.69,8.69,0,0,1-3.81,7.21c-6,2.53-9.84,6.24-9.84,10.38v5.71H62.61V63.76C62.61,59.7,58.94,56.05,53.1,53.52Zm-31-26.58A9.93,9.93,0,0,1,32,17h3.54a9.94,9.94,0,0,1,9.93,9.93v5.78a9.93,9.93,0,0,1-9.93,9.93H32a9.92,9.92,0,0,1-9.92-9.92Z" style="fill:#fff"/><path d="M49,46.15V24.39a15.26,15.26,0,0,0-30.52,0V46.17a8.72,8.72,0,0,1-2.87,6.47,33.57,33.57,0,0,0,18,5.12,33.6,33.6,0,0,0,18.15-5.19A8.75,8.75,0,0,1,49,46.15ZM45.46,32.72a9.93,9.93,0,0,1-9.93,9.93H32a9.92,9.92,0,0,1-9.92-9.92V28.8A11.69,11.69,0,0,1,33.76,17.1h0a11.7,11.7,0,0,1,11.7,11.7Z" style="fill:#fff"/><circle cx="26.34" cy="49.33" r="2.91" style="fill:#c1bdf9"/><path d="M44,48.48H32.28a.64.64,0,0,1,0-1.28H44a.64.64,0,1,1,0,1.28Z" style="fill:#c1bdf9"/><path d="M40.94,51.48H32.28a.64.64,0,0,1,0-1.28h8.66a.64.64,0,1,1,0,1.28Z" style="fill:#c1bdf9"/><rect x="50.05" y="16.76" width="1.37" height="9.63" style="fill:#fff"/><rect x="49.02" y="25.16" width="3.42" height="9.63" style="fill:#c1bdf9"/></svg>