<svg width="34" height="34" viewBox="0 0 34 34" fill="none" xmlns="http://www.w3.org/2000/svg">
<rect width="34" height="34" rx="17" fill="#00D9D3"/>
<path fill-rule="evenodd" clip-rule="evenodd" d="M16.4629 11.9285C18.9482 11.9285 20.9629 13.9432 20.9629 16.4285C20.9629 18.9137 18.9482 20.9285 16.4629 20.9285C13.9776 20.9285 11.9629 18.9137 11.9629 16.4285C11.9629 13.9432 13.9776 11.9285 16.4629 11.9285Z" stroke="white" stroke-width="1.2" stroke-linecap="round" stroke-linejoin="round"/>
<path fill-rule="evenodd" clip-rule="evenodd" d="M16.4629 15.8914C16.7595 15.8914 17 16.1318 17 16.4285C17 16.7251 16.7595 16.9656 16.4629 16.9656C16.1663 16.9656 15.9258 16.7251 15.9258 16.4285C15.9258 16.1318 16.1663 15.8914 16.4629 15.8914Z" stroke="white" stroke-width="1.2" stroke-linecap="round" stroke-linejoin="round"/>
<path d="M19.8887 20L22.9998 23" stroke="white" stroke-width="1.2" stroke-linecap="round"/>
</svg>
