<?xml version="1.0" encoding="utf-8"?>
<!-- Generator: Adobe Illustrator 23.0.1, SVG Export Plug-In . SVG Version: 6.00 Build 0)  -->
<svg version="1.1" id="Layer_1" xmlns="http://www.w3.org/2000/svg" xmlns:xlink="http://www.w3.org/1999/xlink" x="0px" y="0px"
	 viewBox="0 0 21 20" style="enable-background:new 0 0 21 20;" xml:space="preserve">
<style type="text/css">
	.st0{fill:none;stroke:#010101;stroke-miterlimit:10;}
</style>
<title>Text</title>
<path class="st0" d="M17.2,2.9H3.8c-1.1,0-2,0.9-2,2v10.2c0,1.1,0.9,2,2,2c0,0,0,0,0,0h13.5c1.1,0,2-0.9,2-2V4.9
	C19.2,3.8,18.3,2.9,17.2,2.9z"/>
<path d="M14.2,7.3c0-0.5,0-0.9,0-1.2C14.1,6,14,6,14,6l-0.3,0c0,0.1,0,0.1-0.1,0.1c-0.1,0.2-0.1,0.2-0.2,0.3l-0.3,0h-0.9h-0.9
	l-1.3,0l0,0H8.7H7.9l-0.3,0c-0.1,0-0.1-0.1-0.2-0.3c0,0,0-0.1-0.1-0.1L7,6c0,0-0.1,0-0.2,0c0,0.3,0,0.7,0,1.2l0,0.5l0,0.3
	c0,0.1,0,0.2,0,0.3C7,8.4,7.2,8.4,7.3,8.4c0.1-0.2,0.2-0.4,0.3-0.7s0.2-0.4,0.2-0.5c0-0.1,0.1-0.1,0.2-0.1c0.1,0,1.5,0,1.5,0
	c0,0,0,0,0,0l0,0c0,0,0.1,0,0.1,0s0,0,0,0.1c0,0.1,0,0.5,0,1.1l0,2.2c0,1,0,1.7,0,2.2l0-0.1c0,0.1-0.1,0.5-0.1,0.5c0,0,0,0.1,0,0.1
	c-0.1,0-0.2,0.1-0.3,0.1c0,0-0.2,0-0.4,0.1c-0.1,0-0.2,0.1-0.3,0.1c0,0.1,0,0.2,0,0.3c0,0,0,0.1,0,0.2c0.1,0,0.2,0,0.2,0
	c0.4,0,0.7,0,1,0l0,0h1.6c0.3,0,0.6,0,1,0c0.1,0,0.1,0,0.2,0c0-0.1,0-0.1,0-0.2c0,0,0-0.1,0-0.3c-0.1,0-0.2-0.1-0.3-0.1
	c-0.3-0.1-0.4-0.1-0.4-0.1c-0.2,0-0.3,0-0.3-0.1c0-0.1-0.1-0.3-0.1-0.6l0-0.8l0-1.9V8.3l0-0.8c0-0.1,0-0.2,0-0.4c0.1,0,0.1,0,0.2,0
	c0,0,1.4,0,1.5,0c0.1,0,0.1,0,0.2,0.1c0,0,0.1,0.2,0.2,0.5s0.2,0.5,0.3,0.7c0.1,0,0.3,0,0.4-0.1c0-0.1,0-0.2,0-0.3l0-0.3L14.2,7.3z"
	/>
</svg>
